<svg width="108" height="54" viewBox="0 0 108 54" fill="none" xmlns="http://www.w3.org/2000/svg">
<path d="M18.6866 36.2157L12.7941 26.2044H12.3778H8.2147V36.2157H0.0805664V0.292969H12.3778C15.4842 0.292969 18.2062 0.816441 20.4799 1.89608C22.7857 2.94301 24.547 4.44797 25.7639 6.41096C27.0129 8.37395 27.6213 10.6641 27.6213 13.3469C27.6213 16.0296 26.9808 18.3198 25.7319 20.25C24.4829 22.1803 22.6896 23.6526 20.3839 24.6995L27.3651 36.2484H18.6866V36.2157ZM17.5337 8.70111C16.2527 7.62147 14.3953 7.098 11.9615 7.098H8.24672V19.5957H11.9615C14.3953 19.5957 16.2527 19.0395 17.5337 17.9599C18.8147 16.8802 19.4552 15.3426 19.4552 13.3469C19.4231 11.3184 18.7827 9.78076 17.5337 8.70111Z" fill="white"/>
<path d="M88.081 28.6596H82.3487V36.2171H74.4067V28.6596H56.0569V23.0651L72.6454 0.261719H81.1958L65.8242 21.8546H74.6949V15.115H82.3807V21.8546H88.113V28.6596H88.081Z" fill="white"/>
<path d="M40.719 36.5115C44.557 36.5115 47.6682 33.3329 47.6682 29.412C47.6682 25.491 44.557 22.3125 40.719 22.3125C36.8811 22.3125 33.7698 25.491 33.7698 29.412C33.7698 33.3329 36.8811 36.5115 40.719 36.5115Z" fill="#141414"/>
<path d="M40.7191 14.1989C44.5571 14.1989 47.6684 11.0204 47.6684 7.09946C47.6684 3.17853 44.5571 0 40.7191 0C36.8812 0 33.7699 3.17853 33.7699 7.09946C33.7699 11.0204 36.8812 14.1989 40.7191 14.1989Z" fill="#141414"/>
<path d="M101.051 36.5115C104.889 36.5115 108 33.3329 108 29.412C108 25.491 104.889 22.3125 101.051 22.3125C97.2128 22.3125 94.1015 25.491 94.1015 29.412C94.1015 33.3329 97.2128 36.5115 101.051 36.5115Z" fill="white"/>
<path d="M101.051 14.1989C104.889 14.1989 108 11.0204 108 7.09946C108 3.17853 104.889 0 101.051 0C97.2128 0 94.1015 3.17853 94.1015 7.09946C94.1015 11.0204 97.2128 14.1989 101.051 14.1989Z" fill="white"/>
<path d="M4.89379 52.5449H2.01769L1.46902 53.8921H0L2.76105 47.6049H4.17698L6.94688 53.8921H5.44246L4.89379 52.5449ZM4.44247 51.4401L3.46017 49.033L2.47787 51.4401H4.44247Z" fill="white"/>
<path d="M14.5471 47.6049C15.0958 47.6049 15.5707 47.6977 15.9719 47.8833C16.379 48.0689 16.6916 48.3324 16.9099 48.6737C17.1282 49.015 17.2374 49.4192 17.2374 49.8862C17.2374 50.3473 17.1282 50.7515 16.9099 51.0988C16.6916 51.4401 16.379 51.7036 15.9719 51.8892C15.5707 52.0688 15.0958 52.1586 14.5471 52.1586H13.2993V53.8921H11.8657V47.6049H14.5471ZM14.4675 50.973C14.8981 50.973 15.2256 50.8802 15.4498 50.6946C15.674 50.503 15.786 50.2335 15.786 49.8862C15.786 49.533 15.674 49.2635 15.4498 49.0779C15.2256 48.8863 14.8981 48.7905 14.4675 48.7905H13.2993V50.973H14.4675Z" fill="white"/>
<path d="M23.0927 53.8921L21.898 52.1407H21.8272H20.5794V53.8921H19.1458V47.6049H21.8272C22.3759 47.6049 22.8508 47.6977 23.252 47.8833C23.6591 48.0689 23.9718 48.3324 24.1901 48.6737C24.4083 49.015 24.5175 49.4192 24.5175 49.8862C24.5175 50.3533 24.4054 50.7575 24.1812 51.0988C23.9629 51.4341 23.6502 51.6916 23.2432 51.8712L24.6325 53.8921H23.0927ZM23.0662 49.8862C23.0662 49.533 22.9541 49.2635 22.7299 49.0779C22.5057 48.8863 22.1783 48.7905 21.7476 48.7905H20.5794V50.982H21.7476C22.1783 50.982 22.5057 50.8862 22.7299 50.6946C22.9541 50.503 23.0662 50.2335 23.0662 49.8862Z" fill="white"/>
<path d="M26.5383 47.6049H27.9719V53.8921H26.5383V47.6049Z" fill="white"/>
<path d="M30.0527 50.8024H32.5571V51.9251H30.0527V50.8024Z" fill="white"/>
<path d="M40.307 47.6049V53.8921H39.13L36.0415 50.0749V53.8921H34.6256V47.6049H35.8114L38.8911 51.4221V47.6049H40.307Z" fill="white"/>
<path d="M45.4098 53.9999C44.5248 53.9999 43.8346 53.7514 43.339 53.2544C42.8493 52.7574 42.6045 52.0479 42.6045 51.1257V47.6049H44.0381V51.0718C44.0381 52.1976 44.4983 52.7604 45.4186 52.7604C45.867 52.7604 46.2092 52.6257 46.4452 52.3562C46.6812 52.0808 46.7992 51.6527 46.7992 51.0718V47.6049H48.2151V51.1257C48.2151 52.0479 47.9673 52.7574 47.4717 53.2544C46.982 53.7514 46.2947 53.9999 45.4098 53.9999Z" fill="white"/>
<path d="M56.1539 53.8921L56.145 50.1198L54.322 53.2275H53.676L51.8619 50.2006V53.8921H50.5167V47.6049H51.7026L54.0211 51.512L56.3043 47.6049H57.4813L57.499 53.8921H56.1539Z" fill="white"/>
<path d="M65.2802 53.9999C64.7906 53.9999 64.3156 53.9341 63.8555 53.8023C63.4012 53.6646 63.0354 53.488 62.7581 53.2724L63.2448 52.1766C63.5103 52.3742 63.826 52.5329 64.1917 52.6526C64.5575 52.7724 64.9233 52.8323 65.2891 52.8323C65.6962 52.8323 65.997 52.7724 66.1917 52.6526C66.3864 52.5269 66.4838 52.3622 66.4838 52.1586C66.4838 52.0089 66.4248 51.8862 66.3068 51.7904C66.1947 51.6886 66.0472 51.6078 65.8643 51.5479C65.6873 51.488 65.4454 51.4221 65.1386 51.3503C64.6667 51.2365 64.2802 51.1227 63.9794 51.009C63.6785 50.8952 63.4189 50.7126 63.2006 50.4611C62.9882 50.2096 62.882 49.8743 62.882 49.4551C62.882 49.0899 62.9794 48.7605 63.174 48.4671C63.3687 48.1677 63.6608 47.9312 64.0501 47.7575C64.4454 47.5839 64.9263 47.4971 65.4926 47.4971C65.8879 47.4971 66.2743 47.545 66.6519 47.6408C67.0295 47.7366 67.3599 47.8743 67.6431 48.0539L67.2006 49.1587C66.6283 48.8294 66.056 48.6647 65.4838 48.6647C65.0826 48.6647 64.7847 48.7306 64.59 48.8623C64.4012 48.994 64.3068 49.1677 64.3068 49.3833C64.3068 49.5988 64.4159 49.7605 64.6342 49.8683C64.8584 49.9701 65.1976 50.0719 65.6519 50.1737C66.1239 50.2874 66.5103 50.4012 66.8112 50.515C67.1121 50.6287 67.3687 50.8084 67.5811 51.0539C67.7994 51.2994 67.9085 51.6317 67.9085 52.0509C67.9085 52.4101 67.8083 52.7395 67.6077 53.0389C67.413 53.3323 67.118 53.5658 66.7227 53.7395C66.3274 53.9131 65.8466 53.9999 65.2802 53.9999Z" fill="white"/>
<path d="M74.5695 52.7245V53.8921H69.7731V47.6049H74.4545V48.7725H71.1979V50.1377H74.074V51.2694H71.1979V52.7245H74.5695Z" fill="white"/>
<path d="M80.5421 53.8921L79.3474 52.1407H79.2766H78.0288V53.8921H76.5952V47.6049H79.2766C79.8253 47.6049 80.3002 47.6977 80.7014 47.8833C81.1085 48.0689 81.4211 48.3324 81.6394 48.6737C81.8577 49.015 81.9669 49.4192 81.9669 49.8862C81.9669 50.3533 81.8548 50.7575 81.6306 51.0988C81.4123 51.4341 81.0996 51.6916 80.6925 51.8712L82.0819 53.8921H80.5421ZM80.5155 49.8862C80.5155 49.533 80.4034 49.2635 80.1793 49.0779C79.9551 48.8863 79.6276 48.7905 79.197 48.7905H78.0288V50.982H79.197C79.6276 50.982 79.9551 50.8862 80.1793 50.6946C80.4034 50.503 80.5155 50.2335 80.5155 49.8862Z" fill="white"/>
<path d="M89.9434 47.6049L87.262 53.8921H85.8461L83.1735 47.6049H84.7222L86.6071 52.0958L88.5186 47.6049H89.9434Z" fill="white"/>
<path d="M91.3456 47.6049H92.7792V53.8921H91.3456V47.6049Z" fill="white"/>
<path d="M98.0989 53.9999C97.4676 53.9999 96.8953 53.8622 96.3821 53.5868C95.8747 53.3053 95.4735 52.9191 95.1785 52.4281C94.8894 51.9311 94.7449 51.3712 94.7449 50.7485C94.7449 50.1258 94.8894 49.5689 95.1785 49.0779C95.4735 48.5809 95.8747 48.1947 96.3821 47.9192C96.8953 47.6378 97.4706 47.4971 98.1077 47.4971C98.6446 47.4971 99.1284 47.5929 99.559 47.7845C99.9956 47.9761 100.361 48.2515 100.656 48.6108L99.736 49.4731C99.3171 48.9821 98.798 48.7366 98.1785 48.7366C97.795 48.7366 97.4529 48.8234 97.152 48.997C96.8511 49.1647 96.6151 49.4012 96.444 49.7066C96.2788 50.012 96.1962 50.3593 96.1962 50.7485C96.1962 51.1377 96.2788 51.485 96.444 51.7904C96.6151 52.0958 96.8511 52.3353 97.152 52.5089C97.4529 52.6766 97.795 52.7604 98.1785 52.7604C98.798 52.7604 99.3171 52.5119 99.736 52.0149L100.656 52.8772C100.361 53.2425 99.9956 53.5209 99.559 53.7125C99.1225 53.9041 98.6357 53.9999 98.0989 53.9999Z" fill="white"/>
<path d="M107.306 52.7245V53.8921H102.509V47.6049H107.191V48.7725H103.934V50.1377H106.81V51.2694H103.934V52.7245H107.306Z" fill="white"/>
</svg>
