<svg width="300" height="284" viewBox="0 0 300 284" fill="none" xmlns="http://www.w3.org/2000/svg">
<g clip-path="url(#clip0)">
<rect width="300" height="284" fill="white"/>
<rect width="300" height="284" fill="url(#paint0_radial)"/>
<path d="M310 -9H-12.9999V296.773H310V-9Z" fill="url(#paint1_radial)"/>
<path opacity="0.18" d="M594.632 184.852C617.771 132.048 570.009 27.3548 558.572 -29.1437C544.716 -97.0018 516.133 -198.679 392.105 -173.799C147.426 -118.541 202.734 86.3447 49.5711 124.551C-103.592 162.758 -227.784 -52.586 -417.133 45.7899C-606.621 144.056 -550.328 451.672 -332.584 512.581C-152.12 568.168 14.6038 586.209 154.466 534.406C294.329 482.604 508.803 380.412 594.632 184.852Z" fill="url(#paint2_linear)"/>
<path d="M310 222.914L160.236 140.226L-12.9999 216.884V296.773H310V222.914Z" fill="url(#paint3_linear)"/>
<path d="M303.699 81.6973L303.103 250.597L207.15 303.281L207.746 134.262L303.699 81.6973Z" fill="url(#paint4_linear)"/>
<path d="M207.747 134.262L207.151 303.281L51.124 233.552L51.8392 67.3936L207.747 134.262Z" fill="url(#paint5_linear)"/>
<path d="M303.699 81.6968L207.747 134.262L51.8395 67.3934L157.089 20.7881L303.699 81.6968Z" fill="url(#paint6_linear)"/>
<path d="M281.29 80.8624L281.171 89.0869L155.658 37.5946V29.3701L281.29 80.8624Z" fill="url(#paint7_linear)"/>
<path d="M155.658 29.3701V37.5946L71.3872 74.7835V66.559L155.658 29.3701Z" fill="url(#paint8_linear)"/>
<path d="M208.342 140.341V148.565L39.0852 75.7372L39.2044 67.5127L208.342 140.341Z" fill="url(#paint9_linear)"/>
<path d="M312.996 83.6035V91.9472L208.343 148.565V140.34L312.996 83.6035Z" fill="url(#paint10_linear)"/>
<path d="M155.658 19L312.996 83.6038L208.343 140.341L39.0854 67.5125L155.658 19ZM206.197 124.011L281.171 80.7431L155.658 29.37L71.3874 66.5589L206.197 124.011Z" fill="url(#paint11_linear)"/>
<path opacity="0.3" d="M62.2092 216.506L62.4476 154.763L195.35 214.122L195.112 276.342L147.076 254.887L146.957 276.342L97.2526 254.172L97.3718 232.359L62.2092 216.506Z" fill="#706455"/>
<path opacity="0.3" d="M97.3721 232.359L76.6321 223.062L145.885 192.071L195.351 214.122L195.112 276.342L147.076 254.887L146.957 276.342L97.2529 254.172L97.3721 232.359Z" fill="url(#paint12_linear)"/>
<path d="M65.9043 156.193V218.175L69.0034 217.102L69.361 157.743L65.9043 156.193Z" fill="url(#paint13_linear)"/>
<path d="M65.4275 214.718L97.2526 229.499L100.948 227.592L68.8841 213.169L65.4275 214.718Z" fill="url(#paint14_linear)"/>
<path d="M97.2524 229.499V255.126L100.828 253.695L100.947 227.83L97.2524 229.499Z" fill="url(#paint15_linear)"/>
<path d="M147.076 251.192L190.463 270.502V267.879L149.818 249.643L147.076 251.192Z" fill="url(#paint16_linear)"/>
<path d="M151.01 198.627V252.98L154.109 251.669L154.705 200.296L151.01 198.627Z" fill="url(#paint17_linear)"/>
<path d="M97.2524 174.311V229.498L100.947 227.829L100.828 175.979L97.2524 174.311Z" fill="url(#paint18_linear)"/>
<path d="M62.4468 154.763L64.8307 154.048L197.376 213.407L195.349 214.122L62.4468 154.763Z" fill="#A0A0A0"/>
<path d="M195.35 214.122L195.112 276.342L196.781 275.866L197.377 213.407L195.35 214.122Z" fill="url(#paint19_linear)"/>
<path d="M151.01 256.675L150.533 279.083L151.844 278.488L152.321 257.271L151.01 256.675Z" fill="url(#paint20_linear)"/>
<path d="M98.4443 254.648V246.066L146.957 267.879L146.718 276.342L98.4443 254.648Z" fill="url(#paint21_linear)"/>
<path d="M62.2092 216.506L93.2 230.452L93.4384 253.456L97.2526 255.125V232.716V229.617V174.311L94.5111 173.119L146.838 196.719L146.957 251.192L146.599 277.295L150.414 278.964L150.89 256.555L190.344 274.196L194.993 276.223L195.231 218.413V214.003L65.9043 156.193L62.5668 154.644V158.577L62.3284 213.288V216.506H62.2092ZM151.01 252.98V198.627L190.463 216.387V270.501L151.01 252.98ZM93.5576 172.642L93.2 226.995L65.7851 214.48V160.127L93.5576 172.642Z" fill="url(#paint22_linear)"/>
<path d="M98.4443 246.066L100.828 244.874L146.838 265.733L146.957 267.879L98.4443 246.066Z" fill="url(#paint23_linear)"/>
<path d="M121.092 184.562L123.595 185.753V239.749V265.972L121.092 264.78V184.562Z" fill="url(#paint24_linear)"/>
<path d="M123.595 186.35V257.271L125.859 256.198L125.979 187.303L123.595 186.35Z" fill="url(#paint25_linear)"/>
<path d="M206.197 204.587L181.285 228.546L28 159.651L52.435 135.573L206.197 204.587Z" fill="url(#paint26_linear)"/>
<path d="M181.285 228.545L180.451 230.929L206.197 222.705V204.587L181.285 228.545Z" fill="#C92231"/>
<path d="M181.285 228.546L168.531 222.824C168.531 225.923 171.392 229.738 174.848 231.406C178.424 232.956 181.285 231.645 181.285 228.546Z" fill="#C92231"/>
<path d="M168.531 222.824L155.777 217.103C155.777 220.202 158.638 224.016 162.095 225.685C165.671 227.234 168.531 225.923 168.531 222.824Z" fill="#F4F3E4"/>
<path d="M155.777 216.983L143.023 211.262C143.023 214.361 145.884 218.175 149.341 219.844C152.917 221.393 155.777 220.082 155.777 216.983Z" fill="#C92231"/>
<path d="M143.024 211.262L130.27 205.541C130.27 208.64 133.13 212.454 136.587 214.123C140.163 215.673 143.024 214.481 143.024 211.262Z" fill="#F4F3E4"/>
<path d="M130.27 205.541L117.516 199.819C117.516 202.918 120.377 206.733 123.833 208.401C127.409 209.951 130.27 208.759 130.27 205.541Z" fill="#C92231"/>
<path d="M117.516 199.819L104.762 194.098C104.762 197.197 107.623 201.011 111.079 202.68C114.655 204.229 117.516 203.037 117.516 199.819Z" fill="#F4F3E4"/>
<path d="M104.643 194.098L91.8888 188.377C91.8888 191.476 94.7495 195.29 98.2061 196.959C101.782 198.509 104.643 197.197 104.643 194.098Z" fill="#C92231"/>
<path d="M91.8887 188.377L79.1348 182.655C79.1348 185.754 81.9954 189.569 85.4521 191.237C89.028 192.787 91.8887 191.476 91.8887 188.377Z" fill="#F4F3E4"/>
<path d="M79.1348 182.655L66.3809 176.934C66.3809 180.033 69.2415 183.847 72.6982 185.516C76.2741 187.065 79.1348 185.754 79.1348 182.655Z" fill="#C92231"/>
<path d="M66.381 176.934L53.6271 171.213C53.6271 174.312 56.4878 178.126 59.9444 179.795C63.5203 181.345 66.381 180.033 66.381 176.934Z" fill="#F4F3E4"/>
<path d="M53.6272 171.093L40.8733 165.372C40.8733 168.471 43.734 172.285 47.1906 173.954C50.7665 175.504 53.6272 174.312 53.6272 171.093Z" fill="#C92231"/>
<path d="M40.8731 165.491L28 159.65C28 162.749 30.9799 166.683 34.5557 168.232C38.0124 169.782 40.8731 168.59 40.8731 165.491Z" fill="#F4F3E4"/>
<path d="M168.531 222.824L193.324 198.747L206.197 204.588L181.285 228.546L168.531 222.824Z" fill="url(#paint27_linear)"/>
<path d="M142.785 211.262L167.578 187.304L180.451 193.025L155.539 216.983L142.785 211.262Z" fill="url(#paint28_linear)"/>
<path d="M117.516 199.82L142.308 175.861L155.182 181.583L130.27 205.541L117.516 199.82Z" fill="url(#paint29_linear)"/>
<path d="M91.8888 188.377L116.681 164.419L129.554 170.14L104.643 194.099L91.8888 188.377Z" fill="url(#paint30_linear)"/>
<path d="M66.3809 176.934L91.1735 152.856L104.047 158.578L79.1348 182.655L66.3809 176.934Z" fill="url(#paint31_linear)"/>
<path d="M40.8733 165.491L65.6659 141.533L78.539 147.255L53.6272 171.213L40.8733 165.491Z" fill="url(#paint32_linear)"/>
<path d="M213.349 164.06L217.163 162.272L217.044 197.077L213.23 198.865L213.349 164.06Z" fill="url(#paint33_linear)"/>
<path d="M40.9922 87.2987L44.9256 85.5107L217.163 162.272L213.348 164.06L40.9922 87.2987Z" fill="url(#paint34_linear)"/>
<path d="M213.349 164.061L213.23 198.866L40.8733 122.104L40.9925 87.2988L213.349 164.061Z" fill="url(#paint35_linear)"/>
<path d="M56.488 113.164L59.7063 111.138V121.388L56.488 123.415V113.164Z" fill="url(#paint36_linear)"/>
<path d="M52.9116 104.225L56.1299 102.198L59.3482 103.629L56.0107 105.655L52.9116 104.225Z" fill="url(#paint37_linear)"/>
<path d="M56.011 105.655L59.3485 103.629L65.5466 117.336L62.3283 119.363L56.011 105.655Z" fill="url(#paint38_linear)"/>
<path d="M68.0496 118.052L71.3871 116.025L66.3809 122.462L63.1626 124.488L68.0496 118.052Z" fill="url(#paint39_linear)"/>
<path d="M71.7446 112.568L74.9629 110.542V128.183L71.7446 130.209V112.568Z" fill="url(#paint40_linear)"/>
<path d="M68.5264 111.138L71.7446 109.111L74.9629 110.542L71.7446 112.568L68.5264 111.138Z" fill="url(#paint41_linear)"/>
<path d="M71.7448 112.568V130.209L68.0497 128.54V118.051L63.1627 124.488L61.3748 123.773L56.4878 113.164V123.415L52.7927 121.866L52.9119 104.225L56.011 105.655L62.3283 119.362L68.5265 111.138L71.7448 112.568Z" fill="url(#paint42_linear)"/>
<path d="M79.4924 126.276L82.8299 124.25V128.303L79.4924 130.329V126.276Z" fill="url(#paint43_linear)"/>
<path d="M79.4924 130.329L82.8299 128.303L91.8887 132.355L88.6705 134.382L79.4924 130.329Z" fill="url(#paint44_linear)"/>
<path d="M88.6704 134.381L91.8887 132.354V135.573L88.6704 137.599V134.381Z" fill="url(#paint45_linear)"/>
<path d="M79.6119 119.243L82.8302 117.217V121.031L79.6119 123.057V119.243Z" fill="url(#paint46_linear)"/>
<path d="M79.6119 123.058L82.8302 121.031L90.5779 124.488L87.3596 126.514L79.6119 123.058Z" fill="url(#paint47_linear)"/>
<path d="M87.3595 126.515L90.5778 124.488V127.707L87.3595 129.733V126.515Z" fill="url(#paint48_linear)"/>
<path d="M88.4321 119.959L88.3129 123.177L79.6117 119.243V123.058L87.3593 126.514V129.733L79.4925 126.276V130.329L88.6705 134.381V137.6L75.6782 131.878V114.356L88.4321 119.959Z" fill="url(#paint49_linear)"/>
<path d="M88.4323 119.959L91.6506 117.813V121.151L88.3131 123.177L88.4323 119.959Z" fill="url(#paint50_linear)"/>
<path d="M75.6783 114.356L79.0158 112.33L91.6505 117.813L88.4322 119.959L75.6783 114.356Z" fill="url(#paint51_linear)"/>
<path d="M95.5841 135.811L98.9216 133.785V138.672L95.5841 140.698V135.811Z" fill="url(#paint52_linear)"/>
<path d="M95.5841 132.593L98.9216 130.566L102.14 131.878L98.8024 133.904L95.5841 132.593Z" fill="url(#paint53_linear)"/>
<path d="M102.855 138.195L106.073 136.169L109.887 143.559L106.55 145.585L102.855 138.195Z" fill="url(#paint54_linear)"/>
<path d="M95.7033 126.394L98.9216 124.368V130.566L95.5841 132.593L95.7033 126.394Z" fill="url(#paint55_linear)"/>
<path d="M98.8021 133.904L102.14 131.878C103.332 132.355 104.166 132.474 104.762 132.236L101.424 134.262C100.828 134.619 99.9941 134.5 98.8021 133.904Z" fill="url(#paint56_linear)"/>
<path d="M104.881 132.235L101.544 134.262L101.424 134.381L104.762 132.355C104.762 132.235 104.881 132.235 104.881 132.235Z" fill="#141414"/>
<path d="M91.7695 121.389L95.107 119.362L102.259 122.581L99.0404 124.607L91.7695 121.389Z" fill="url(#paint57_linear)"/>
<path d="M107.98 135.692L104.643 137.718C104.881 137.599 105.119 137.36 105.239 137.122C105.835 136.407 106.192 135.453 106.192 134.142C106.192 132.831 105.954 131.52 105.358 130.328C104.762 129.136 103.927 128.063 102.855 126.99C101.782 126.037 100.471 125.202 99.0404 124.487L102.378 122.461C103.808 123.057 105.119 123.891 106.192 124.964C107.265 125.918 108.099 127.11 108.695 128.302C109.291 129.493 109.53 130.805 109.53 132.116C109.53 133.427 109.172 134.38 108.576 135.096C108.457 135.334 108.218 135.572 107.98 135.692Z" fill="url(#paint58_linear)"/>
<path d="M102.855 138.195L106.55 145.466L102.378 143.678L99.1597 137.361L98.9213 137.242L95.5838 135.811V140.698L91.6504 139.03V121.389L98.9213 124.607C100.352 125.203 101.663 126.037 102.736 127.11C103.808 128.064 104.643 129.256 105.239 130.448C105.835 131.639 106.073 132.951 106.073 134.262C106.073 135.573 105.715 136.526 105.119 137.242C104.762 137.838 103.927 138.195 102.855 138.195ZM101.424 134.381C102.02 134.143 102.378 133.547 102.378 132.474C102.378 131.52 102.14 130.567 101.424 129.852C100.828 129.017 99.9941 128.421 98.8021 127.944L95.703 126.514V132.593L98.8021 134.023C99.9941 134.5 100.828 134.619 101.424 134.381Z" fill="url(#paint59_linear)"/>
<path d="M113.702 135.811L117.039 133.785C116.682 134.024 116.443 134.262 116.205 134.5C115.728 135.096 115.49 136.05 115.49 137.123C115.49 138.195 115.728 139.268 116.205 140.341C116.682 141.414 117.277 142.367 118.112 143.202C118.946 144.036 119.9 144.632 120.853 145.109C122.403 145.824 123.714 145.824 124.787 145.109L121.449 147.135C120.377 147.85 119.065 147.85 117.516 147.135C116.443 146.658 115.609 146.062 114.774 145.228C113.94 144.394 113.344 143.44 112.867 142.367C112.39 141.294 112.152 140.222 112.152 139.149C112.152 138.076 112.39 137.242 112.867 136.527C113.106 136.288 113.344 136.05 113.702 135.811Z" fill="url(#paint60_linear)"/>
<path d="M127.051 148.804L123.714 150.83C123.833 150.711 124.072 150.592 124.191 150.473L127.528 148.446C127.409 148.565 127.29 148.685 127.051 148.804Z" fill="#141414"/>
<path d="M121.807 147.016L125.025 144.989L127.528 148.446L124.31 150.472L121.807 147.016Z" fill="url(#paint61_linear)"/>
<path d="M110.722 132.236L114.059 130.209C114.655 129.852 115.37 129.613 116.086 129.494C117.516 129.375 119.065 129.613 120.734 130.328L117.397 132.355C115.728 131.64 114.059 131.282 112.748 131.52C112.033 131.64 111.318 131.878 110.722 132.236Z" fill="url(#paint62_linear)"/>
<path d="M117.397 132.355L120.734 130.329C122.165 130.925 123.476 131.759 124.668 132.832C125.86 133.905 126.813 135.097 127.648 136.408L124.31 138.434C123.476 137.123 122.522 135.931 121.33 134.859C120.138 133.905 118.827 133.071 117.397 132.355Z" fill="url(#paint63_linear)"/>
<path d="M117.397 132.355C118.827 132.951 120.138 133.785 121.33 134.858C122.522 135.931 123.476 137.123 124.31 138.434L121.807 139.745C120.734 137.838 119.304 136.527 117.635 135.812C116.562 135.335 115.728 135.216 114.894 135.335C114.059 135.454 113.463 135.812 112.986 136.527C112.51 137.123 112.271 138.076 112.271 139.149C112.271 140.222 112.51 141.295 112.986 142.367C113.463 143.44 114.059 144.394 114.894 145.228C115.728 146.063 116.682 146.658 117.635 147.135C119.304 147.85 120.734 147.85 121.807 146.897L124.31 150.354C123.476 151.069 122.522 151.426 121.33 151.426C120.138 151.426 118.827 151.188 117.397 150.473C115.728 149.758 114.178 148.685 112.748 147.254C111.318 145.824 110.245 144.275 109.53 142.606C108.695 140.818 108.338 139.149 108.338 137.361C108.338 135.573 108.695 134.262 109.53 133.189C110.364 132.117 111.437 131.521 112.748 131.401C114.178 131.282 115.728 131.64 117.397 132.355Z" fill="url(#paint64_linear)"/>
<path d="M130.747 148.923L134.084 146.896V154.167L130.747 156.194V148.923Z" fill="url(#paint65_linear)"/>
<path d="M130.747 138.553L134.084 136.526V143.44L130.747 145.585V138.553Z" fill="url(#paint66_linear)"/>
<path d="M126.932 136.884L130.151 134.857L134.084 136.526L130.746 138.552L126.932 136.884Z" fill="url(#paint67_linear)"/>
<path d="M130.747 145.585L134.084 143.439L141.713 146.896L138.375 148.922L130.747 145.585Z" fill="url(#paint68_linear)"/>
<path d="M142.309 143.678L145.527 141.651V159.173L142.19 161.199L142.309 143.678Z" fill="url(#paint69_linear)"/>
<path d="M138.375 141.891L141.713 139.864L145.527 141.652L142.309 143.679L138.375 141.891Z" fill="url(#paint70_linear)"/>
<path d="M142.309 143.678L142.189 161.2L138.375 159.531V152.379L130.747 148.922V156.193L126.932 154.525V136.884L130.747 138.553V145.585L138.375 148.922V141.89L142.309 143.678Z" fill="url(#paint71_linear)"/>
<path d="M149.46 160.724L152.798 158.578L151.248 161.796L148.03 163.823L149.46 160.724Z" fill="url(#paint72_linear)"/>
<path d="M150.772 158.102L153.99 156.075L159.354 158.459L156.016 160.485L150.772 158.102Z" fill="url(#paint73_linear)"/>
<path d="M153.394 152.499L156.732 150.473L153.99 156.075L150.772 158.101L153.394 152.499Z" fill="url(#paint74_linear)"/>
<path d="M151.487 147.731L154.824 145.705L158.638 147.374L155.301 149.4L151.487 147.731Z" fill="url(#paint75_linear)"/>
<path d="M155.301 149.4L158.638 147.374L166.148 168.233L162.81 170.26L155.301 149.4Z" fill="url(#paint76_linear)"/>
<path d="M155.301 149.4L162.81 170.259L158.758 168.471L157.327 164.061L149.58 160.605L148.03 163.704L144.097 161.916L151.606 147.612L155.301 149.4ZM150.772 158.101L156.135 160.485L153.513 152.619L150.772 158.101Z" fill="url(#paint77_linear)"/>
<path d="M168.412 162.034L171.75 160.008L171.631 170.735L168.412 172.762V162.034Z" fill="url(#paint78_linear)"/>
<path d="M164.598 153.452L167.935 151.426L171.035 152.856L167.816 154.882L164.598 153.452Z" fill="url(#paint79_linear)"/>
<path d="M167.816 154.883L171.035 152.856L179.378 167.16L176.16 169.305L167.816 154.883Z" fill="url(#paint80_linear)"/>
<path d="M179.974 160.246L183.193 158.22V175.861L179.974 177.887V160.246Z" fill="url(#paint81_linear)"/>
<path d="M176.16 158.578L179.378 156.552L183.192 158.22L179.974 160.247L176.16 158.578Z" fill="url(#paint82_linear)"/>
<path d="M179.974 160.246V177.887L176.756 176.457L168.412 162.034V172.762L164.598 171.093V153.452L167.816 154.882L176.16 169.305V158.578L179.974 160.246Z" fill="url(#paint83_linear)"/>
<path d="M191.297 168.59L194.516 166.563V180.748L191.178 182.893L191.297 168.59Z" fill="url(#paint84_linear)"/>
<path d="M196.661 167.637L199.88 165.61V168.948L196.661 170.974V167.637Z" fill="url(#paint85_linear)"/>
<path d="M182 161.2L185.338 159.174L199.88 165.61L196.661 167.637L182 161.2Z" fill="url(#paint86_linear)"/>
<path d="M196.661 167.637V170.974L191.297 168.59L191.178 182.894L187.364 181.106V166.802L182 164.538V161.2L196.661 167.637Z" fill="url(#paint87_linear)"/>
<path d="M176.279 63.2207V78.0009L151.486 89.0861L151.606 74.3059L176.279 63.2207Z" fill="url(#paint88_linear)"/>
<path d="M151.606 74.3059L151.486 89.0861L126.694 78.0009V63.2207L151.606 74.3059Z" fill="url(#paint89_linear)"/>
<path d="M176.279 63.221L151.606 74.3061L126.694 63.221L151.487 52.0166L176.279 63.221Z" fill="url(#paint90_linear)"/>
<path d="M168.055 62.8637L151.606 70.2538L135.037 62.8637L151.486 55.4736L168.055 62.8637Z" fill="url(#paint91_linear)"/>
<path d="M160.903 66.082L151.486 61.9102L142.189 66.082L151.606 70.2538L160.903 66.082Z" fill="url(#paint92_linear)"/>
</g>
<defs>
<radialGradient id="paint0_radial" cx="0" cy="0" r="1" gradientUnits="userSpaceOnUse" gradientTransform="translate(3.12873e-06 12.9603) rotate(39.9886) scale(421.763 636.112)">
<stop offset="0.00298114" stop-color="#373DDA"/>
<stop offset="0.54913" stop-color="#1E25D5"/>
<stop offset="1" stop-color="#001688"/>
</radialGradient>
<radialGradient id="paint1_radial" cx="0" cy="0" r="1" gradientUnits="userSpaceOnUse" gradientTransform="translate(-12.9887 -4.30185) scale(448.603)">
<stop stop-color="#1E25D5"/>
<stop offset="0.6405" stop-color="#0005A8"/>
<stop offset="1" stop-color="#000554"/>
</radialGradient>
<linearGradient id="paint2_linear" x1="-79.865" y1="191.844" x2="-1.52753" y2="563.019" gradientUnits="userSpaceOnUse">
<stop stop-color="#7176FF"/>
<stop offset="1" stop-color="#373DDA"/>
</linearGradient>
<linearGradient id="paint3_linear" x1="-110.059" y1="112.818" x2="-66.7729" y2="137.431" gradientUnits="userSpaceOnUse">
<stop stop-color="#E7E4EE"/>
<stop offset="0.5108" stop-color="#BBBCD7"/>
<stop offset="1" stop-color="#8189CC"/>
</linearGradient>
<linearGradient id="paint4_linear" x1="78.0618" y1="119.493" x2="359.354" y2="235.224" gradientUnits="userSpaceOnUse">
<stop stop-color="#E7E4EE"/>
<stop offset="0.5108" stop-color="#BBBCD7"/>
<stop offset="1" stop-color="#8189CC"/>
</linearGradient>
<linearGradient id="paint5_linear" x1="26.2967" y1="99.0781" x2="480.558" y2="472.685" gradientUnits="userSpaceOnUse">
<stop stop-color="#E7E4EE"/>
<stop offset="0.5108" stop-color="#BBBCD7"/>
<stop offset="1" stop-color="#8189CC"/>
</linearGradient>
<linearGradient id="paint6_linear" x1="90.0072" y1="72.5797" x2="499.337" y2="94.4555" gradientUnits="userSpaceOnUse">
<stop stop-color="#E7E4EE"/>
<stop offset="0.5108" stop-color="#BBBCD7"/>
<stop offset="1" stop-color="#8189CC"/>
</linearGradient>
<linearGradient id="paint7_linear" x1="276.083" y1="78.9859" x2="-235.038" y2="-96.5381" gradientUnits="userSpaceOnUse">
<stop stop-color="#E7E4EE"/>
<stop offset="0.5108" stop-color="#BBBCD7"/>
<stop offset="1" stop-color="#8189CC"/>
</linearGradient>
<linearGradient id="paint8_linear" x1="381.956" y1="-15.03" x2="70.0972" y2="62.9347" gradientUnits="userSpaceOnUse">
<stop stop-color="#E7E4EE"/>
<stop offset="0.5108" stop-color="#BBBCD7"/>
<stop offset="1" stop-color="#8189CC"/>
</linearGradient>
<linearGradient id="paint9_linear" x1="-25.0052" y1="63.2761" x2="270.728" y2="152.274" gradientUnits="userSpaceOnUse">
<stop stop-color="#E7E4EE"/>
<stop offset="0.5108" stop-color="#BBBCD7"/>
<stop offset="1" stop-color="#8189CC"/>
</linearGradient>
<linearGradient id="paint10_linear" x1="-99.9696" y1="150.046" x2="239.973" y2="118.06" gradientUnits="userSpaceOnUse">
<stop stop-color="#E7E4EE"/>
<stop offset="0.5108" stop-color="#BBBCD7"/>
<stop offset="1" stop-color="#8189CC"/>
</linearGradient>
<linearGradient id="paint11_linear" x1="79.7776" y1="80.1539" x2="579.864" y2="77.8988" gradientUnits="userSpaceOnUse">
<stop stop-color="white"/>
<stop offset="0.3432" stop-color="#E7E4EE"/>
<stop offset="1" stop-color="#B9BBD6"/>
</linearGradient>
<linearGradient id="paint12_linear" x1="76.6067" y1="234.224" x2="195.332" y2="234.224" gradientUnits="userSpaceOnUse">
<stop stop-color="#E7E4EE"/>
<stop offset="0.5108" stop-color="#BBBCD7"/>
<stop offset="1" stop-color="#8189CC"/>
</linearGradient>
<linearGradient id="paint13_linear" x1="202.208" y1="187.233" x2="202.363" y2="187.233" gradientUnits="userSpaceOnUse">
<stop stop-color="#000F4C"/>
<stop offset="0.3813" stop-color="#001160"/>
<stop offset="1" stop-color="#001688"/>
</linearGradient>
<linearGradient id="paint14_linear" x1="83.1759" y1="223.396" x2="83.1759" y2="211.962" gradientUnits="userSpaceOnUse">
<stop stop-color="#373DDA"/>
<stop offset="0.5378" stop-color="#1E25D5"/>
<stop offset="1" stop-color="#0006A4"/>
</linearGradient>
<linearGradient id="paint15_linear" x1="202.208" y1="241.471" x2="202.363" y2="241.471" gradientUnits="userSpaceOnUse">
<stop stop-color="#000F4C"/>
<stop offset="0.3813" stop-color="#001160"/>
<stop offset="1" stop-color="#001688"/>
</linearGradient>
<linearGradient id="paint16_linear" x1="168.75" y1="223.396" x2="168.75" y2="211.962" gradientUnits="userSpaceOnUse">
<stop stop-color="#373DDA"/>
<stop offset="0.5378" stop-color="#1E25D5"/>
<stop offset="1" stop-color="#0006A4"/>
</linearGradient>
<linearGradient id="paint17_linear" x1="202.208" y1="225.803" x2="202.363" y2="225.803" gradientUnits="userSpaceOnUse">
<stop stop-color="#000F4C"/>
<stop offset="0.3813" stop-color="#001160"/>
<stop offset="1" stop-color="#001688"/>
</linearGradient>
<linearGradient id="paint18_linear" x1="202.208" y1="201.941" x2="202.363" y2="201.941" gradientUnits="userSpaceOnUse">
<stop stop-color="#000F4C"/>
<stop offset="0.3813" stop-color="#001160"/>
<stop offset="1" stop-color="#001688"/>
</linearGradient>
<linearGradient id="paint19_linear" x1="202.208" y1="244.89" x2="202.363" y2="244.89" gradientUnits="userSpaceOnUse">
<stop stop-color="#000F4C"/>
<stop offset="0.3813" stop-color="#001160"/>
<stop offset="1" stop-color="#001688"/>
</linearGradient>
<linearGradient id="paint20_linear" x1="202.208" y1="267.872" x2="202.363" y2="267.872" gradientUnits="userSpaceOnUse">
<stop stop-color="#000F4C"/>
<stop offset="0.3813" stop-color="#001160"/>
<stop offset="1" stop-color="#001688"/>
</linearGradient>
<linearGradient id="paint21_linear" x1="47.8072" y1="197.4" x2="170.875" y2="302.39" gradientUnits="userSpaceOnUse">
<stop stop-color="#373DDA"/>
<stop offset="0.5378" stop-color="#1E25D5"/>
<stop offset="1" stop-color="#0006A4"/>
</linearGradient>
<linearGradient id="paint22_linear" x1="70.5211" y1="170.775" x2="193.589" y2="275.765" gradientUnits="userSpaceOnUse">
<stop stop-color="#373DDA"/>
<stop offset="0.5378" stop-color="#1E25D5"/>
<stop offset="1" stop-color="#0006A4"/>
</linearGradient>
<linearGradient id="paint23_linear" x1="122.688" y1="223.395" x2="122.688" y2="211.962" gradientUnits="userSpaceOnUse">
<stop stop-color="#373DDA"/>
<stop offset="0.5378" stop-color="#1E25D5"/>
<stop offset="1" stop-color="#0006A4"/>
</linearGradient>
<linearGradient id="paint24_linear" x1="65.4564" y1="176.712" x2="188.524" y2="281.702" gradientUnits="userSpaceOnUse">
<stop stop-color="#373DDA"/>
<stop offset="0.5378" stop-color="#1E25D5"/>
<stop offset="1" stop-color="#0006A4"/>
</linearGradient>
<linearGradient id="paint25_linear" x1="202.208" y1="221.759" x2="202.363" y2="221.759" gradientUnits="userSpaceOnUse">
<stop stop-color="#000F4C"/>
<stop offset="0.3813" stop-color="#001160"/>
<stop offset="1" stop-color="#001688"/>
</linearGradient>
<linearGradient id="paint26_linear" x1="47.408" y1="145.115" x2="348.704" y2="305.033" gradientUnits="userSpaceOnUse">
<stop stop-color="white"/>
<stop offset="0.3432" stop-color="#E7E4EE"/>
<stop offset="1" stop-color="#B9BBD6"/>
</linearGradient>
<linearGradient id="paint27_linear" x1="52.4793" y1="162.788" x2="277.756" y2="247.769" gradientUnits="userSpaceOnUse">
<stop stop-color="#FF2337"/>
<stop offset="0.4946" stop-color="#FB0118"/>
<stop offset="1" stop-color="#C92231"/>
</linearGradient>
<linearGradient id="paint28_linear" x1="53.0749" y1="161.209" x2="278.351" y2="246.19" gradientUnits="userSpaceOnUse">
<stop stop-color="#FF2337"/>
<stop offset="0.4946" stop-color="#FB0118"/>
<stop offset="1" stop-color="#C92231"/>
</linearGradient>
<linearGradient id="paint29_linear" x1="53.6886" y1="159.583" x2="278.965" y2="244.564" gradientUnits="userSpaceOnUse">
<stop stop-color="#FF2337"/>
<stop offset="0.4946" stop-color="#FB0118"/>
<stop offset="1" stop-color="#C92231"/>
</linearGradient>
<linearGradient id="paint30_linear" x1="54.2771" y1="158.023" x2="279.554" y2="243.004" gradientUnits="userSpaceOnUse">
<stop stop-color="#FF2337"/>
<stop offset="0.4946" stop-color="#FB0118"/>
<stop offset="1" stop-color="#C92231"/>
</linearGradient>
<linearGradient id="paint31_linear" x1="54.9102" y1="156.344" x2="280.187" y2="241.324" gradientUnits="userSpaceOnUse">
<stop stop-color="#FF2337"/>
<stop offset="0.4946" stop-color="#FB0118"/>
<stop offset="1" stop-color="#C92231"/>
</linearGradient>
<linearGradient id="paint32_linear" x1="55.4994" y1="154.783" x2="280.776" y2="239.763" gradientUnits="userSpaceOnUse">
<stop stop-color="#FF2337"/>
<stop offset="0.4946" stop-color="#FB0118"/>
<stop offset="1" stop-color="#C92231"/>
</linearGradient>
<linearGradient id="paint33_linear" x1="213.179" y1="180.533" x2="217.222" y2="180.533" gradientUnits="userSpaceOnUse">
<stop stop-color="#00015C"/>
<stop offset="1" stop-color="#000141"/>
</linearGradient>
<linearGradient id="paint34_linear" x1="278.355" y1="128.945" x2="240.629" y2="127.887" gradientUnits="userSpaceOnUse">
<stop stop-color="#373DDA"/>
<stop offset="0.5378" stop-color="#1E25D5"/>
<stop offset="1" stop-color="#0006A4"/>
</linearGradient>
<linearGradient id="paint35_linear" x1="35.9415" y1="95.036" x2="459.27" y2="317.984" gradientUnits="userSpaceOnUse">
<stop stop-color="#373DDA"/>
<stop offset="0.5378" stop-color="#1E25D5"/>
<stop offset="1" stop-color="#0006A4"/>
</linearGradient>
<linearGradient id="paint36_linear" x1="139.026" y1="51.6105" x2="134.16" y2="55.2421" gradientUnits="userSpaceOnUse">
<stop stop-color="#E7E4EE"/>
<stop offset="0.5108" stop-color="#BBBCD7"/>
<stop offset="1" stop-color="#8189CC"/>
</linearGradient>
<linearGradient id="paint37_linear" x1="154.251" y1="45.4708" x2="150.681" y2="47.3078" gradientUnits="userSpaceOnUse">
<stop stop-color="#E7E4EE"/>
<stop offset="0.5108" stop-color="#BBBCD7"/>
<stop offset="1" stop-color="#8189CC"/>
</linearGradient>
<linearGradient id="paint38_linear" x1="143.834" y1="62.0509" x2="140.806" y2="63.609" gradientUnits="userSpaceOnUse">
<stop stop-color="#E7E4EE"/>
<stop offset="0.5108" stop-color="#BBBCD7"/>
<stop offset="1" stop-color="#8189CC"/>
</linearGradient>
<linearGradient id="paint39_linear" x1="146.99" y1="55.5283" x2="141.957" y2="59.2841" gradientUnits="userSpaceOnUse">
<stop stop-color="#E7E4EE"/>
<stop offset="0.5108" stop-color="#BBBCD7"/>
<stop offset="1" stop-color="#8189CC"/>
</linearGradient>
<linearGradient id="paint40_linear" x1="146.359" y1="61.0978" x2="141.536" y2="64.6971" gradientUnits="userSpaceOnUse">
<stop stop-color="#E7E4EE"/>
<stop offset="0.5108" stop-color="#BBBCD7"/>
<stop offset="1" stop-color="#8189CC"/>
</linearGradient>
<linearGradient id="paint41_linear" x1="160.996" y1="57.6649" x2="157.426" y2="59.5015" gradientUnits="userSpaceOnUse">
<stop stop-color="#E7E4EE"/>
<stop offset="0.5108" stop-color="#BBBCD7"/>
<stop offset="1" stop-color="#8189CC"/>
</linearGradient>
<linearGradient id="paint42_linear" x1="51.3715" y1="110.654" x2="223.357" y2="218.893" gradientUnits="userSpaceOnUse">
<stop stop-color="white"/>
<stop offset="0.3432" stop-color="#E7E4EE"/>
<stop offset="1" stop-color="#B9BBD6"/>
</linearGradient>
<linearGradient id="paint43_linear" x1="166.086" y1="76.7245" x2="162.691" y2="78.4713" gradientUnits="userSpaceOnUse">
<stop stop-color="#E7E4EE"/>
<stop offset="0.5108" stop-color="#BBBCD7"/>
<stop offset="1" stop-color="#8189CC"/>
</linearGradient>
<linearGradient id="paint44_linear" x1="174.748" y1="78.3222" x2="171.12" y2="80.189" gradientUnits="userSpaceOnUse">
<stop stop-color="#E7E4EE"/>
<stop offset="0.5108" stop-color="#BBBCD7"/>
<stop offset="1" stop-color="#8189CC"/>
</linearGradient>
<linearGradient id="paint45_linear" x1="162.798" y1="76.1574" x2="157.828" y2="79.867" gradientUnits="userSpaceOnUse">
<stop stop-color="#E7E4EE"/>
<stop offset="0.5108" stop-color="#BBBCD7"/>
<stop offset="1" stop-color="#8189CC"/>
</linearGradient>
<linearGradient id="paint46_linear" x1="163.224" y1="71.3228" x2="159.825" y2="73.0716" gradientUnits="userSpaceOnUse">
<stop stop-color="#E7E4EE"/>
<stop offset="0.5108" stop-color="#BBBCD7"/>
<stop offset="1" stop-color="#8189CC"/>
</linearGradient>
<linearGradient id="paint47_linear" x1="171.04" y1="72.6059" x2="167.421" y2="74.4681" gradientUnits="userSpaceOnUse">
<stop stop-color="#E7E4EE"/>
<stop offset="0.5108" stop-color="#BBBCD7"/>
<stop offset="1" stop-color="#8189CC"/>
</linearGradient>
<linearGradient id="paint48_linear" x1="158.435" y1="70.7462" x2="153.461" y2="74.4579" gradientUnits="userSpaceOnUse">
<stop stop-color="#E7E4EE"/>
<stop offset="0.5108" stop-color="#BBBCD7"/>
<stop offset="1" stop-color="#8189CC"/>
</linearGradient>
<linearGradient id="paint49_linear" x1="53.4814" y1="108.733" x2="224.305" y2="216.241" gradientUnits="userSpaceOnUse">
<stop stop-color="white"/>
<stop offset="0.3432" stop-color="#E7E4EE"/>
<stop offset="1" stop-color="#B9BBD6"/>
</linearGradient>
<linearGradient id="paint50_linear" x1="155.612" y1="67.2956" x2="150.641" y2="71.0052" gradientUnits="userSpaceOnUse">
<stop stop-color="#E7E4EE"/>
<stop offset="0.5108" stop-color="#BBBCD7"/>
<stop offset="1" stop-color="#8189CC"/>
</linearGradient>
<linearGradient id="paint51_linear" x1="167.896" y1="65.9323" x2="164.25" y2="67.8079" gradientUnits="userSpaceOnUse">
<stop stop-color="#E7E4EE"/>
<stop offset="0.5108" stop-color="#BBBCD7"/>
<stop offset="1" stop-color="#8189CC"/>
</linearGradient>
<linearGradient id="paint52_linear" x1="166.286" y1="81.2337" x2="161.352" y2="84.9164" gradientUnits="userSpaceOnUse">
<stop stop-color="#E7E4EE"/>
<stop offset="0.5108" stop-color="#BBBCD7"/>
<stop offset="1" stop-color="#8189CC"/>
</linearGradient>
<linearGradient id="paint53_linear" x1="176.832" y1="85.787" x2="173.263" y2="87.6236" gradientUnits="userSpaceOnUse">
<stop stop-color="#E7E4EE"/>
<stop offset="0.5108" stop-color="#BBBCD7"/>
<stop offset="1" stop-color="#8189CC"/>
</linearGradient>
<linearGradient id="paint54_linear" x1="168.652" y1="90.3113" x2="163.959" y2="93.8135" gradientUnits="userSpaceOnUse">
<stop stop-color="#E7E4EE"/>
<stop offset="0.5108" stop-color="#BBBCD7"/>
<stop offset="1" stop-color="#8189CC"/>
</linearGradient>
<linearGradient id="paint55_linear" x1="161.77" y1="76.1516" x2="156.856" y2="79.8186" gradientUnits="userSpaceOnUse">
<stop stop-color="#E7E4EE"/>
<stop offset="0.5108" stop-color="#BBBCD7"/>
<stop offset="1" stop-color="#8189CC"/>
</linearGradient>
<linearGradient id="paint56_linear" x1="131.014" y1="111.679" x2="125.455" y2="115.354" gradientUnits="userSpaceOnUse">
<stop stop-color="#E7E4EE"/>
<stop offset="0.5108" stop-color="#BBBCD7"/>
<stop offset="1" stop-color="#8189CC"/>
</linearGradient>
<linearGradient id="paint57_linear" x1="172.876" y1="76.8073" x2="169.261" y2="78.6675" gradientUnits="userSpaceOnUse">
<stop stop-color="#E7E4EE"/>
<stop offset="0.5108" stop-color="#BBBCD7"/>
<stop offset="1" stop-color="#8189CC"/>
</linearGradient>
<linearGradient id="paint58_linear" x1="164.665" y1="80.5491" x2="159.808" y2="84.1739" gradientUnits="userSpaceOnUse">
<stop stop-color="#E7E4EE"/>
<stop offset="0.5108" stop-color="#BBBCD7"/>
<stop offset="1" stop-color="#8189CC"/>
</linearGradient>
<linearGradient id="paint59_linear" x1="54.8838" y1="107.348" x2="226.136" y2="215.125" gradientUnits="userSpaceOnUse">
<stop stop-color="white"/>
<stop offset="0.3432" stop-color="#E7E4EE"/>
<stop offset="1" stop-color="#B9BBD6"/>
</linearGradient>
<linearGradient id="paint60_linear" x1="186.653" y1="100.341" x2="183.022" y2="102.209" gradientUnits="userSpaceOnUse">
<stop stop-color="#E7E4EE"/>
<stop offset="0.5108" stop-color="#BBBCD7"/>
<stop offset="1" stop-color="#8189CC"/>
</linearGradient>
<linearGradient id="paint61_linear" x1="181.437" y1="101.662" x2="176.625" y2="105.253" gradientUnits="userSpaceOnUse">
<stop stop-color="#E7E4EE"/>
<stop offset="0.5108" stop-color="#BBBCD7"/>
<stop offset="1" stop-color="#8189CC"/>
</linearGradient>
<linearGradient id="paint62_linear" x1="180.155" y1="92.8885" x2="176.601" y2="94.7169" gradientUnits="userSpaceOnUse">
<stop stop-color="#E7E4EE"/>
<stop offset="0.5108" stop-color="#BBBCD7"/>
<stop offset="1" stop-color="#8189CC"/>
</linearGradient>
<linearGradient id="paint63_linear" x1="185.763" y1="96.7692" x2="182.058" y2="98.6754" gradientUnits="userSpaceOnUse">
<stop stop-color="#E7E4EE"/>
<stop offset="0.5108" stop-color="#BBBCD7"/>
<stop offset="1" stop-color="#8189CC"/>
</linearGradient>
<linearGradient id="paint64_linear" x1="56.369" y1="104.762" x2="229.206" y2="213.537" gradientUnits="userSpaceOnUse">
<stop stop-color="white"/>
<stop offset="0.3432" stop-color="#E7E4EE"/>
<stop offset="1" stop-color="#B9BBD6"/>
</linearGradient>
<linearGradient id="paint65_linear" x1="187.583" y1="106.794" x2="182.684" y2="110.45" gradientUnits="userSpaceOnUse">
<stop stop-color="#E7E4EE"/>
<stop offset="0.5108" stop-color="#BBBCD7"/>
<stop offset="1" stop-color="#8189CC"/>
</linearGradient>
<linearGradient id="paint66_linear" x1="182.563" y1="100.365" x2="177.66" y2="104.023" gradientUnits="userSpaceOnUse">
<stop stop-color="#E7E4EE"/>
<stop offset="0.5108" stop-color="#BBBCD7"/>
<stop offset="1" stop-color="#8189CC"/>
</linearGradient>
<linearGradient id="paint67_linear" x1="186.525" y1="103.344" x2="182.944" y2="105.186" gradientUnits="userSpaceOnUse">
<stop stop-color="#E7E4EE"/>
<stop offset="0.5108" stop-color="#BBBCD7"/>
<stop offset="1" stop-color="#8189CC"/>
</linearGradient>
<linearGradient id="paint68_linear" x1="192.628" y1="112.59" x2="189.009" y2="114.451" gradientUnits="userSpaceOnUse">
<stop stop-color="#E7E4EE"/>
<stop offset="0.5108" stop-color="#BBBCD7"/>
<stop offset="1" stop-color="#8189CC"/>
</linearGradient>
<linearGradient id="paint69_linear" x1="191.659" y1="112.686" x2="186.835" y2="116.286" gradientUnits="userSpaceOnUse">
<stop stop-color="#E7E4EE"/>
<stop offset="0.5108" stop-color="#BBBCD7"/>
<stop offset="1" stop-color="#8189CC"/>
</linearGradient>
<linearGradient id="paint70_linear" x1="191.465" y1="112.306" x2="187.885" y2="114.149" gradientUnits="userSpaceOnUse">
<stop stop-color="#E7E4EE"/>
<stop offset="0.5108" stop-color="#BBBCD7"/>
<stop offset="1" stop-color="#8189CC"/>
</linearGradient>
<linearGradient id="paint71_linear" x1="58.6415" y1="103.356" x2="230.002" y2="211.201" gradientUnits="userSpaceOnUse">
<stop stop-color="white"/>
<stop offset="0.3432" stop-color="#E7E4EE"/>
<stop offset="1" stop-color="#B9BBD6"/>
</linearGradient>
<linearGradient id="paint72_linear" x1="201.149" y1="120.012" x2="196.122" y2="123.764" gradientUnits="userSpaceOnUse">
<stop stop-color="#E7E4EE"/>
<stop offset="0.5108" stop-color="#BBBCD7"/>
<stop offset="1" stop-color="#8189CC"/>
</linearGradient>
<linearGradient id="paint73_linear" x1="202.023" y1="130.284" x2="198.425" y2="132.136" gradientUnits="userSpaceOnUse">
<stop stop-color="#E7E4EE"/>
<stop offset="0.5108" stop-color="#BBBCD7"/>
<stop offset="1" stop-color="#8189CC"/>
</linearGradient>
<linearGradient id="paint74_linear" x1="198.892" y1="117.662" x2="193.889" y2="121.397" gradientUnits="userSpaceOnUse">
<stop stop-color="#E7E4EE"/>
<stop offset="0.5108" stop-color="#BBBCD7"/>
<stop offset="1" stop-color="#8189CC"/>
</linearGradient>
<linearGradient id="paint75_linear" x1="197.089" y1="122.527" x2="193.51" y2="124.369" gradientUnits="userSpaceOnUse">
<stop stop-color="#E7E4EE"/>
<stop offset="0.5108" stop-color="#BBBCD7"/>
<stop offset="1" stop-color="#8189CC"/>
</linearGradient>
<linearGradient id="paint76_linear" x1="200.257" y1="126.766" x2="195.686" y2="130.177" gradientUnits="userSpaceOnUse">
<stop stop-color="#E7E4EE"/>
<stop offset="0.5108" stop-color="#BBBCD7"/>
<stop offset="1" stop-color="#8189CC"/>
</linearGradient>
<linearGradient id="paint77_linear" x1="60.8991" y1="102.277" x2="231.28" y2="209.506" gradientUnits="userSpaceOnUse">
<stop stop-color="white"/>
<stop offset="0.3432" stop-color="#E7E4EE"/>
<stop offset="1" stop-color="#B9BBD6"/>
</linearGradient>
<linearGradient id="paint78_linear" x1="210.395" y1="133.662" x2="205.531" y2="137.292" gradientUnits="userSpaceOnUse">
<stop stop-color="#E7E4EE"/>
<stop offset="0.5108" stop-color="#BBBCD7"/>
<stop offset="1" stop-color="#8189CC"/>
</linearGradient>
<linearGradient id="paint79_linear" x1="202.486" y1="132.534" x2="198.915" y2="134.371" gradientUnits="userSpaceOnUse">
<stop stop-color="#E7E4EE"/>
<stop offset="0.5108" stop-color="#BBBCD7"/>
<stop offset="1" stop-color="#8189CC"/>
</linearGradient>
<linearGradient id="paint80_linear" x1="205.948" y1="134.805" x2="201.549" y2="138.089" gradientUnits="userSpaceOnUse">
<stop stop-color="#E7E4EE"/>
<stop offset="0.5108" stop-color="#BBBCD7"/>
<stop offset="1" stop-color="#8189CC"/>
</linearGradient>
<linearGradient id="paint81_linear" x1="215.837" y1="140.241" x2="211.013" y2="143.841" gradientUnits="userSpaceOnUse">
<stop stop-color="#E7E4EE"/>
<stop offset="0.5108" stop-color="#BBBCD7"/>
<stop offset="1" stop-color="#8189CC"/>
</linearGradient>
<linearGradient id="paint82_linear" x1="207.674" y1="141.723" x2="204.095" y2="143.565" gradientUnits="userSpaceOnUse">
<stop stop-color="#E7E4EE"/>
<stop offset="0.5108" stop-color="#BBBCD7"/>
<stop offset="1" stop-color="#8189CC"/>
</linearGradient>
<linearGradient id="paint83_linear" x1="62.4087" y1="99.5417" x2="233.77" y2="207.387" gradientUnits="userSpaceOnUse">
<stop stop-color="white"/>
<stop offset="0.3432" stop-color="#E7E4EE"/>
<stop offset="1" stop-color="#B9BBD6"/>
</linearGradient>
<linearGradient id="paint84_linear" x1="223.986" y1="149.459" x2="219.147" y2="153.07" gradientUnits="userSpaceOnUse">
<stop stop-color="#E7E4EE"/>
<stop offset="0.5108" stop-color="#BBBCD7"/>
<stop offset="1" stop-color="#8189CC"/>
</linearGradient>
<linearGradient id="paint85_linear" x1="223.914" y1="147.449" x2="218.944" y2="151.158" gradientUnits="userSpaceOnUse">
<stop stop-color="#E7E4EE"/>
<stop offset="0.5108" stop-color="#BBBCD7"/>
<stop offset="1" stop-color="#8189CC"/>
</linearGradient>
<linearGradient id="paint86_linear" x1="212.972" y1="150.276" x2="209.319" y2="152.155" gradientUnits="userSpaceOnUse">
<stop stop-color="#E7E4EE"/>
<stop offset="0.5108" stop-color="#BBBCD7"/>
<stop offset="1" stop-color="#8189CC"/>
</linearGradient>
<linearGradient id="paint87_linear" x1="65.4253" y1="98.1707" x2="235.134" y2="204.976" gradientUnits="userSpaceOnUse">
<stop stop-color="white"/>
<stop offset="0.3432" stop-color="#E7E4EE"/>
<stop offset="1" stop-color="#B9BBD6"/>
</linearGradient>
<linearGradient id="paint88_linear" x1="134.005" y1="78.0487" x2="181.054" y2="75.0357" gradientUnits="userSpaceOnUse">
<stop stop-color="#E7E4EE"/>
<stop offset="0.5108" stop-color="#BBBCD7"/>
<stop offset="1" stop-color="#8189CC"/>
</linearGradient>
<linearGradient id="paint89_linear" x1="98.7182" y1="55.405" x2="188.18" y2="101.295" gradientUnits="userSpaceOnUse">
<stop stop-color="#E7E4EE"/>
<stop offset="0.5108" stop-color="#BBBCD7"/>
<stop offset="1" stop-color="#8189CC"/>
</linearGradient>
<linearGradient id="paint90_linear" x1="127.692" y1="64.5707" x2="229.9" y2="58.5448" gradientUnits="userSpaceOnUse">
<stop stop-color="white"/>
<stop offset="0.3432" stop-color="#E7E4EE"/>
<stop offset="1" stop-color="#B9BBD6"/>
</linearGradient>
<linearGradient id="paint91_linear" x1="135.93" y1="62.6566" x2="166.523" y2="63.1201" gradientUnits="userSpaceOnUse">
<stop stop-color="#DCDAEA"/>
<stop offset="0.0594595" stop-color="#E7E4EE"/>
<stop offset="0.427" stop-color="#BBBCD7"/>
<stop offset="0.727" stop-color="#9CA1D1"/>
<stop offset="0.8973" stop-color="#BBBCD7"/>
<stop offset="1" stop-color="#D0CFE2"/>
</linearGradient>
<linearGradient id="paint92_linear" x1="151.513" y1="62.596" x2="151.513" y2="73.0255" gradientUnits="userSpaceOnUse">
<stop stop-color="#373DDA"/>
<stop offset="0.5378" stop-color="#1E25D5"/>
<stop offset="1" stop-color="#0006A4"/>
</linearGradient>
<clipPath id="clip0">
<rect width="300" height="284" fill="white"/>
</clipPath>
</defs>
</svg>
