<svg width="139" height="60" viewBox="0 0 139 60" fill="none" xmlns="http://www.w3.org/2000/svg">
<path d="M0 26C0 18.268 6.26801 12 14 12L129 12V30C129 41.0457 120.046 50 109 50H0V26Z" fill="white"/>
<rect x="79" width="60" height="60" rx="30" fill="url(#paint0_radial)"/>
<path d="M120.842 22.1045L105.616 37.6684L97.1578 29.8864" stroke="white" stroke-width="2.5" stroke-linecap="square"/>
<path d="M25.8587 33.732H20.9587L19.9927 36H18.1167L22.5267 26.2H24.3187L28.7427 36H26.8387L25.8587 33.732ZM25.2567 32.304L23.4087 28.02L21.5747 32.304H25.2567ZM33.4627 36.098C32.688 36.098 31.9927 35.9347 31.3767 35.608C30.7607 35.2813 30.28 34.8287 29.9347 34.25C29.5894 33.662 29.4167 32.9993 29.4167 32.262C29.4167 31.5247 29.5894 30.8667 29.9347 30.288C30.28 29.7093 30.756 29.2567 31.3627 28.93C31.9787 28.6033 32.6787 28.44 33.4627 28.44C34.2 28.44 34.844 28.5893 35.3947 28.888C35.9547 29.1867 36.3747 29.616 36.6547 30.176L35.3107 30.96C35.096 30.6147 34.8254 30.358 34.4987 30.19C34.1814 30.0127 33.8314 29.924 33.4487 29.924C32.7954 29.924 32.254 30.1387 31.8247 30.568C31.3954 30.988 31.1807 31.5527 31.1807 32.262C31.1807 32.9713 31.3907 33.5407 31.8107 33.97C32.24 34.39 32.786 34.6 33.4487 34.6C33.8314 34.6 34.1814 34.516 34.4987 34.348C34.8254 34.1707 35.096 33.9093 35.3107 33.564L36.6547 34.348C36.3654 34.908 35.9407 35.342 35.3807 35.65C34.83 35.9487 34.1907 36.098 33.4627 36.098ZM43.0372 35.594C42.8318 35.762 42.5798 35.888 42.2812 35.972C41.9918 36.056 41.6838 36.098 41.3572 36.098C40.5358 36.098 39.9012 35.8833 39.4532 35.454C39.0052 35.0247 38.7812 34.3993 38.7812 33.578V29.98H37.5492V28.58H38.7812V26.872H40.5312V28.58H42.5332V29.98H40.5312V33.536C40.5312 33.9 40.6198 34.18 40.7972 34.376C40.9745 34.5627 41.2312 34.656 41.5672 34.656C41.9592 34.656 42.2858 34.5533 42.5472 34.348L43.0372 35.594ZM44.7567 28.524H46.5067V36H44.7567V28.524ZM45.6387 27.292C45.3214 27.292 45.0554 27.194 44.8407 26.998C44.6261 26.7927 44.5187 26.5407 44.5187 26.242C44.5187 25.9433 44.6261 25.696 44.8407 25.5C45.0554 25.2947 45.3214 25.192 45.6387 25.192C45.9561 25.192 46.2221 25.29 46.4367 25.486C46.6514 25.6727 46.7587 25.9107 46.7587 26.2C46.7587 26.508 46.6514 26.7693 46.4367 26.984C46.2314 27.1893 45.9654 27.292 45.6387 27.292ZM56.0836 28.524L52.8776 36H51.0716L47.8656 28.524H49.6856L52.0096 34.068L54.4036 28.524H56.0836ZM64.2803 32.304C64.2803 32.4253 64.271 32.598 64.2523 32.822H58.3863C58.489 33.3727 58.755 33.8113 59.1843 34.138C59.623 34.4553 60.1643 34.614 60.8083 34.614C61.6296 34.614 62.3063 34.3433 62.8383 33.802L63.7763 34.88C63.4403 35.2813 63.0156 35.5847 62.5023 35.79C61.989 35.9953 61.4103 36.098 60.7663 36.098C59.945 36.098 59.2216 35.9347 58.5963 35.608C57.971 35.2813 57.4856 34.8287 57.1403 34.25C56.8043 33.662 56.6363 32.9993 56.6363 32.262C56.6363 31.534 56.7996 30.8807 57.1263 30.302C57.4623 29.714 57.9243 29.2567 58.5123 28.93C59.1003 28.6033 59.763 28.44 60.5003 28.44C61.2283 28.44 61.877 28.6033 62.4463 28.93C63.025 29.2473 63.473 29.7 63.7903 30.288C64.117 30.8667 64.2803 31.5387 64.2803 32.304ZM60.5003 29.84C59.9403 29.84 59.4643 30.008 59.0723 30.344C58.6896 30.6707 58.4563 31.1093 58.3723 31.66H62.6143C62.5396 31.1187 62.311 30.68 61.9283 30.344C61.5456 30.008 61.0696 29.84 60.5003 29.84Z" fill="#141414"/>
<defs>
<radialGradient id="paint0_radial" cx="0" cy="0" r="1" gradientUnits="userSpaceOnUse" gradientTransform="translate(79 2.7381) rotate(41.5414) scale(86.3468 131.286)">
<stop offset="0.00298114" stop-color="#0FBC88"/>
<stop offset="0.54913" stop-color="#009846"/>
<stop offset="1" stop-color="#007135"/>
</radialGradient>
</defs>
</svg>
