<svg width="72" height="24" viewBox="0 0 72 24" fill="none" xmlns="http://www.w3.org/2000/svg">
<path d="M12.4132 23.8106L8.48199 17.23H8.20425H5.42677V23.8106H0V0.197998H8.20425C10.2767 0.197998 12.0927 0.542085 13.6096 1.25175C15.1479 1.93992 16.323 2.92915 17.1349 4.21945C17.9681 5.50976 18.3741 7.01512 18.3741 8.77854C18.3741 10.542 17.9468 12.0473 17.1135 13.3161C16.2803 14.5849 15.0838 15.5526 13.5455 16.2408L18.2032 23.8321H12.4132V23.8106ZM11.644 5.72481C10.7894 5.01514 9.55025 4.67106 7.92649 4.67106H5.44813V12.886H7.92649C9.55025 12.886 10.7894 12.5204 11.644 11.8108C12.4986 11.1011 12.926 10.0904 12.926 8.77854C12.9046 7.44522 12.4773 6.43448 11.644 5.72481Z" fill="white"/>
<path d="M58.7102 18.8386H54.8859V23.8062H49.5873V18.8386H37.345V15.1612L48.4122 0.172119H54.1167L43.8614 14.3655H49.7796V9.93543H54.9072V14.3655H58.7316V18.8386H58.7102Z" fill="white"/>
<path d="M27.1125 24C29.673 24 31.7487 21.9107 31.7487 19.3334C31.7487 16.7561 29.673 14.6667 27.1125 14.6667C24.5519 14.6667 22.4762 16.7561 22.4762 19.3334C22.4762 21.9107 24.5519 24 27.1125 24Z" fill="#1E25D5"/>
<path d="M27.1126 9.33321C29.6731 9.33321 31.7488 7.24389 31.7488 4.6666C31.7488 2.0893 29.6731 0 27.1126 0C24.552 0 22.4763 2.0893 22.4763 4.6666C22.4763 7.24389 24.552 9.33321 27.1126 9.33321Z" fill="#1E25D5"/>
<path d="M67.3632 24C69.9237 24 71.9994 21.9107 71.9994 19.3334C71.9994 16.7561 69.9237 14.6667 67.3632 14.6667C64.8026 14.6667 62.7269 16.7561 62.7269 19.3334C62.7269 21.9107 64.8026 24 67.3632 24Z" fill="white"/>
<path d="M67.3634 9.33321C69.9239 9.33321 71.9996 7.24389 71.9996 4.6666C71.9996 2.0893 69.9239 0 67.3634 0C64.8028 0 62.7271 2.0893 62.7271 4.6666C62.7271 7.24389 64.8028 9.33321 67.3634 9.33321Z" fill="white"/>
</svg>
