<svg width="24" height="24" viewBox="0 0 24 24" fill="none" xmlns="http://www.w3.org/2000/svg">
<path d="M12.0871 5.72656C7.24066 5.72656 3.15252 9.89454 1.71426 11.9785C2.99271 14.0837 6.85712 18.2941 12.0871 18.2941C17.3172 18.2941 21.0654 14.0837 22.2857 11.9785C20.9055 9.89454 16.9336 5.72656 12.0871 5.72656Z" stroke="#141414" stroke-width="1.5"/>
<path d="M12.0502 15.7998C14.1213 15.7998 15.8002 14.1209 15.8002 12.0498C15.8002 11.8231 15.7801 11.601 15.7415 11.3854M12.0502 8.2998C9.97913 8.2998 8.3002 9.97874 8.3002 12.0498C8.3002 12.3541 8.33644 12.6499 8.40484 12.9332" stroke="#1E25D5" stroke-width="1.5"/>
<path d="M19.9104 4.28564L4.06778 19.7142" stroke="#141414" stroke-width="1.5"/>
</svg>
