<svg width="178" height="60" viewBox="0 0 178 60" fill="none" xmlns="http://www.w3.org/2000/svg">
<path d="M0 26C0 18.268 6.26801 12 14 12L168 12V30C168 41.0457 159.046 50 148 50H0V26Z" fill="white"/>
<rect x="118" width="60" height="60" rx="30" fill="url(#paint0_radial)"/>
<path d="M154.733 24.2676L148 31L141.268 37.7325" stroke="white" stroke-width="2.5" stroke-linecap="square"/>
<circle cx="148" cy="31" r="10.75" stroke="white" stroke-width="2.5"/>
<path d="M24.6843 36.14C23.9283 36.14 23.1956 36.0327 22.4863 35.818C21.7863 35.6033 21.231 35.3187 20.8203 34.964L21.4503 33.55C21.8516 33.8673 22.3416 34.1287 22.9203 34.334C23.5083 34.53 24.0963 34.628 24.6843 34.628C25.4123 34.628 25.9536 34.5113 26.3083 34.278C26.6723 34.0447 26.8543 33.7367 26.8543 33.354C26.8543 33.074 26.7516 32.8453 26.5463 32.668C26.3503 32.4813 26.0983 32.3367 25.7903 32.234C25.4823 32.1313 25.0623 32.0147 24.5303 31.884C23.7836 31.7067 23.177 31.5293 22.7103 31.352C22.253 31.1747 21.8563 30.8993 21.5203 30.526C21.1936 30.1433 21.0303 29.63 21.0303 28.986C21.0303 28.4447 21.175 27.9547 21.4643 27.516C21.763 27.068 22.2063 26.7133 22.7943 26.452C23.3916 26.1907 24.1196 26.06 24.9783 26.06C25.5756 26.06 26.1636 26.1347 26.7423 26.284C27.321 26.4333 27.8203 26.648 28.2403 26.928L27.6663 28.342C27.237 28.09 26.789 27.8987 26.3223 27.768C25.8556 27.6373 25.403 27.572 24.9643 27.572C24.2456 27.572 23.709 27.6933 23.3543 27.936C23.009 28.1787 22.8363 28.5007 22.8363 28.902C22.8363 29.182 22.9343 29.4107 23.1303 29.588C23.3356 29.7653 23.5923 29.9053 23.9003 30.008C24.2083 30.1107 24.6283 30.2273 25.1603 30.358C25.8883 30.526 26.4856 30.7033 26.9523 30.89C27.419 31.0673 27.8156 31.3427 28.1423 31.716C28.4783 32.0893 28.6463 32.5933 28.6463 33.228C28.6463 33.7693 28.497 34.2593 28.1983 34.698C27.909 35.1367 27.4656 35.4867 26.8683 35.748C26.271 36.0093 25.543 36.14 24.6843 36.14ZM37.801 28.524V36H36.135V35.048C35.855 35.384 35.505 35.6453 35.085 35.832C34.665 36.0093 34.2123 36.098 33.727 36.098C32.7283 36.098 31.9397 35.8227 31.361 35.272C30.7917 34.712 30.507 33.886 30.507 32.794V28.524H32.257V32.556C32.257 33.228 32.4063 33.732 32.705 34.068C33.013 34.3947 33.447 34.558 34.007 34.558C34.6323 34.558 35.127 34.3667 35.491 33.984C35.8643 33.592 36.051 33.032 36.051 32.304V28.524H37.801ZM42.6823 36.098C42.0756 36.098 41.483 36.0187 40.9043 35.86C40.3256 35.7013 39.8636 35.5007 39.5183 35.258L40.1903 33.928C40.5263 34.152 40.9276 34.334 41.3943 34.474C41.8703 34.6047 42.337 34.67 42.7943 34.67C43.8396 34.67 44.3623 34.3947 44.3623 33.844C44.3623 33.5827 44.227 33.4007 43.9563 33.298C43.695 33.1953 43.2703 33.0973 42.6823 33.004C42.0663 32.9107 41.5623 32.8033 41.1703 32.682C40.7876 32.5607 40.4516 32.3507 40.1623 32.052C39.8823 31.744 39.7423 31.3193 39.7423 30.778C39.7423 30.0687 40.0363 29.504 40.6243 29.084C41.2216 28.6547 42.0243 28.44 43.0323 28.44C43.5456 28.44 44.059 28.5007 44.5723 28.622C45.0856 28.734 45.5056 28.888 45.8323 29.084L45.1603 30.414C44.5256 30.0407 43.8116 29.854 43.0183 29.854C42.505 29.854 42.113 29.9333 41.8423 30.092C41.581 30.2413 41.4503 30.442 41.4503 30.694C41.4503 30.974 41.5903 31.1747 41.8703 31.296C42.1596 31.408 42.603 31.5153 43.2003 31.618C43.7976 31.7113 44.2876 31.8187 44.6703 31.94C45.053 32.0613 45.3796 32.2667 45.6503 32.556C45.9303 32.8453 46.0703 33.256 46.0703 33.788C46.0703 34.488 45.767 35.048 45.1603 35.468C44.5536 35.888 43.7276 36.098 42.6823 36.098ZM52.0014 28.44C52.7294 28.44 53.378 28.5987 53.9474 28.916C54.526 29.2333 54.9787 29.6813 55.3054 30.26C55.632 30.8387 55.7954 31.506 55.7954 32.262C55.7954 33.018 55.632 33.69 55.3054 34.278C54.9787 34.8567 54.526 35.3047 53.9474 35.622C53.378 35.9393 52.7294 36.098 52.0014 36.098C50.9934 36.098 50.1954 35.762 49.6074 35.09V38.716H47.8574V28.524H49.5234V29.504C49.8127 29.1493 50.1674 28.8833 50.5874 28.706C51.0167 28.5287 51.488 28.44 52.0014 28.44ZM51.8054 34.6C52.4494 34.6 52.9767 34.3853 53.3874 33.956C53.8074 33.5267 54.0174 32.962 54.0174 32.262C54.0174 31.562 53.8074 30.9973 53.3874 30.568C52.9767 30.1387 52.4494 29.924 51.8054 29.924C51.3854 29.924 51.0074 30.022 50.6714 30.218C50.3354 30.4047 50.0694 30.6753 49.8734 31.03C49.6774 31.3847 49.5794 31.7953 49.5794 32.262C49.5794 32.7287 49.6774 33.1393 49.8734 33.494C50.0694 33.8487 50.3354 34.124 50.6714 34.32C51.0074 34.5067 51.3854 34.6 51.8054 34.6ZM64.763 32.304C64.763 32.4253 64.7537 32.598 64.735 32.822H58.869C58.9717 33.3727 59.2377 33.8113 59.667 34.138C60.1057 34.4553 60.647 34.614 61.291 34.614C62.1124 34.614 62.789 34.3433 63.321 33.802L64.259 34.88C63.923 35.2813 63.4984 35.5847 62.985 35.79C62.4717 35.9953 61.893 36.098 61.249 36.098C60.4277 36.098 59.7044 35.9347 59.079 35.608C58.4537 35.2813 57.9684 34.8287 57.623 34.25C57.287 33.662 57.119 32.9993 57.119 32.262C57.119 31.534 57.2824 30.8807 57.609 30.302C57.945 29.714 58.407 29.2567 58.995 28.93C59.583 28.6033 60.2457 28.44 60.983 28.44C61.711 28.44 62.3597 28.6033 62.929 28.93C63.5077 29.2473 63.9557 29.7 64.273 30.288C64.5997 30.8667 64.763 31.5387 64.763 32.304ZM60.983 29.84C60.423 29.84 59.947 30.008 59.555 30.344C59.1724 30.6707 58.939 31.1093 58.855 31.66H63.097C63.0224 31.1187 62.7937 30.68 62.411 30.344C62.0284 30.008 61.5524 29.84 60.983 29.84ZM70.966 28.44C71.9087 28.44 72.6647 28.7153 73.234 29.266C73.8034 29.8167 74.088 30.6333 74.088 31.716V36H72.338V31.94C72.338 31.2867 72.184 30.7967 71.876 30.47C71.568 30.134 71.1294 29.966 70.56 29.966C69.916 29.966 69.4074 30.162 69.034 30.554C68.6607 30.9367 68.474 31.492 68.474 32.22V36H66.724V28.524H68.39V29.49C68.6794 29.1447 69.0434 28.8833 69.482 28.706C69.9207 28.5287 70.4154 28.44 70.966 28.44ZM83.9784 25.612V36H82.2984V35.034C82.009 35.3887 81.6497 35.6547 81.2204 35.832C80.8004 36.0093 80.3337 36.098 79.8204 36.098C79.1017 36.098 78.453 35.9393 77.8744 35.622C77.305 35.3047 76.857 34.8567 76.5304 34.278C76.2037 33.69 76.0404 33.018 76.0404 32.262C76.0404 31.506 76.2037 30.8387 76.5304 30.26C76.857 29.6813 77.305 29.2333 77.8744 28.916C78.453 28.5987 79.1017 28.44 79.8204 28.44C80.315 28.44 80.7677 28.524 81.1784 28.692C81.589 28.86 81.939 29.112 82.2284 29.448V25.612H83.9784ZM80.0304 34.6C80.4504 34.6 80.8284 34.5067 81.1644 34.32C81.5004 34.124 81.7664 33.8487 81.9624 33.494C82.1584 33.1393 82.2564 32.7287 82.2564 32.262C82.2564 31.7953 82.1584 31.3847 81.9624 31.03C81.7664 30.6753 81.5004 30.4047 81.1644 30.218C80.8284 30.022 80.4504 29.924 80.0304 29.924C79.6104 29.924 79.2324 30.022 78.8964 30.218C78.5604 30.4047 78.2944 30.6753 78.0984 31.03C77.9024 31.3847 77.8044 31.7953 77.8044 32.262C77.8044 32.7287 77.9024 33.1393 78.0984 33.494C78.2944 33.8487 78.5604 34.124 78.8964 34.32C79.2324 34.5067 79.6104 34.6 80.0304 34.6ZM93.5757 32.304C93.5757 32.4253 93.5664 32.598 93.5477 32.822H87.6817C87.7844 33.3727 88.0504 33.8113 88.4797 34.138C88.9184 34.4553 89.4597 34.614 90.1037 34.614C90.925 34.614 91.6017 34.3433 92.1337 33.802L93.0717 34.88C92.7357 35.2813 92.311 35.5847 91.7977 35.79C91.2844 35.9953 90.7057 36.098 90.0617 36.098C89.2404 36.098 88.517 35.9347 87.8917 35.608C87.2664 35.2813 86.781 34.8287 86.4357 34.25C86.0997 33.662 85.9317 32.9993 85.9317 32.262C85.9317 31.534 86.095 30.8807 86.4217 30.302C86.7577 29.714 87.2197 29.2567 87.8077 28.93C88.3957 28.6033 89.0584 28.44 89.7957 28.44C90.5237 28.44 91.1724 28.6033 91.7417 28.93C92.3204 29.2473 92.7684 29.7 93.0857 30.288C93.4124 30.8667 93.5757 31.5387 93.5757 32.304ZM89.7957 29.84C89.2357 29.84 88.7597 30.008 88.3677 30.344C87.985 30.6707 87.7517 31.1093 87.6677 31.66H91.9097C91.835 31.1187 91.6064 30.68 91.2237 30.344C90.841 30.008 90.365 29.84 89.7957 29.84ZM102.859 25.612V36H101.179V35.034C100.889 35.3887 100.53 35.6547 100.101 35.832C99.6807 36.0093 99.214 36.098 98.7007 36.098C97.982 36.098 97.3333 35.9393 96.7547 35.622C96.1853 35.3047 95.7373 34.8567 95.4107 34.278C95.084 33.69 94.9207 33.018 94.9207 32.262C94.9207 31.506 95.084 30.8387 95.4107 30.26C95.7373 29.6813 96.1853 29.2333 96.7547 28.916C97.3333 28.5987 97.982 28.44 98.7007 28.44C99.1953 28.44 99.648 28.524 100.059 28.692C100.469 28.86 100.819 29.112 101.109 29.448V25.612H102.859ZM98.9107 34.6C99.3307 34.6 99.7087 34.5067 100.045 34.32C100.381 34.124 100.647 33.8487 100.843 33.494C101.039 33.1393 101.137 32.7287 101.137 32.262C101.137 31.7953 101.039 31.3847 100.843 31.03C100.647 30.6753 100.381 30.4047 100.045 30.218C99.7087 30.022 99.3307 29.924 98.9107 29.924C98.4907 29.924 98.1127 30.022 97.7767 30.218C97.4407 30.4047 97.1747 30.6753 96.9787 31.03C96.7827 31.3847 96.6847 31.7953 96.6847 32.262C96.6847 32.7287 96.7827 33.1393 96.9787 33.494C97.1747 33.8487 97.4407 34.124 97.7767 34.32C98.1127 34.5067 98.4907 34.6 98.9107 34.6Z" fill="#141414"/>
<defs>
<radialGradient id="paint0_radial" cx="0" cy="0" r="1" gradientUnits="userSpaceOnUse" gradientTransform="translate(130 2.14286) rotate(63.4349) scale(77.6235 118.023)">
<stop offset="0.00298114" stop-color="#FF852D"/>
<stop offset="0.369792" stop-color="#FD6A00"/>
<stop offset="1" stop-color="#C2421A"/>
</radialGradient>
</defs>
</svg>
