<svg width="151" height="60" viewBox="0 0 151 60" fill="none" xmlns="http://www.w3.org/2000/svg">
<path d="M0 26C0 18.268 6.26801 12 14 12L141 12V30C141 41.0457 132.046 50 121 50H0V26Z" fill="white"/>
<rect x="91" width="60" height="60" rx="30" fill="url(#paint0_linear)"/>
<circle cx="121" cy="30" r="10.75" stroke="white" stroke-width="2.5"/>
<path d="M121 24V30.9375L124 33.5" stroke="white" stroke-width="2.5"/>
<path d="M18.9205 26.2H20.7405V36H18.9205V26.2ZM27.7452 28.44C28.6878 28.44 29.4438 28.7153 30.0132 29.266C30.5825 29.8167 30.8672 30.6333 30.8672 31.716V36H29.1172V31.94C29.1172 31.2867 28.9632 30.7967 28.6552 30.47C28.3472 30.134 27.9085 29.966 27.3392 29.966C26.6952 29.966 26.1865 30.162 25.8132 30.554C25.4398 30.9367 25.2532 31.492 25.2532 32.22V36H23.5032V28.524H25.1692V29.49C25.4585 29.1447 25.8225 28.8833 26.2612 28.706C26.6998 28.5287 27.1945 28.44 27.7452 28.44ZM36.2231 28.44C37.3245 28.44 38.1645 28.706 38.7431 29.238C39.3311 29.7607 39.6251 30.554 39.6251 31.618V36H37.9731V35.09C37.7585 35.4167 37.4505 35.6687 37.0491 35.846C36.6571 36.014 36.1811 36.098 35.6211 36.098C35.0611 36.098 34.5711 36.0047 34.1511 35.818C33.7311 35.622 33.4045 35.356 33.1711 35.02C32.9471 34.6747 32.8351 34.2873 32.8351 33.858C32.8351 33.186 33.0825 32.6493 33.5771 32.248C34.0811 31.8373 34.8698 31.632 35.9431 31.632H37.8751V31.52C37.8751 30.9973 37.7165 30.596 37.3991 30.316C37.0911 30.036 36.6291 29.896 36.0131 29.896C35.5931 29.896 35.1778 29.9613 34.7671 30.092C34.3658 30.2227 34.0251 30.4047 33.7451 30.638L33.0591 29.364C33.4511 29.0653 33.9225 28.8367 34.4731 28.678C35.0238 28.5193 35.6071 28.44 36.2231 28.44ZM35.9851 34.824C36.4238 34.824 36.8111 34.726 37.1471 34.53C37.4925 34.3247 37.7351 34.0353 37.8751 33.662V32.794H36.0691C35.0611 32.794 34.5571 33.1253 34.5571 33.788C34.5571 34.1053 34.6831 34.3573 34.9351 34.544C35.1871 34.7307 35.5371 34.824 35.9851 34.824ZM45.6494 36.098C44.8747 36.098 44.1794 35.9347 43.5634 35.608C42.9474 35.2813 42.4667 34.8287 42.1214 34.25C41.7761 33.662 41.6034 32.9993 41.6034 32.262C41.6034 31.5247 41.7761 30.8667 42.1214 30.288C42.4667 29.7093 42.9427 29.2567 43.5494 28.93C44.1654 28.6033 44.8654 28.44 45.6494 28.44C46.3867 28.44 47.0307 28.5893 47.5814 28.888C48.1414 29.1867 48.5614 29.616 48.8414 30.176L47.4974 30.96C47.2827 30.6147 47.0121 30.358 46.6854 30.19C46.3681 30.0127 46.0181 29.924 45.6354 29.924C44.9821 29.924 44.4407 30.1387 44.0114 30.568C43.5821 30.988 43.3674 31.5527 43.3674 32.262C43.3674 32.9713 43.5774 33.5407 43.9974 33.97C44.4267 34.39 44.9727 34.6 45.6354 34.6C46.0181 34.6 46.3681 34.516 46.6854 34.348C47.0121 34.1707 47.2827 33.9093 47.4974 33.564L48.8414 34.348C48.5521 34.908 48.1274 35.342 47.5674 35.65C47.0167 35.9487 46.3774 36.098 45.6494 36.098ZM55.2239 35.594C55.0185 35.762 54.7665 35.888 54.4679 35.972C54.1785 36.056 53.8705 36.098 53.5439 36.098C52.7225 36.098 52.0879 35.8833 51.6399 35.454C51.1919 35.0247 50.9679 34.3993 50.9679 33.578V29.98H49.7359V28.58H50.9679V26.872H52.7179V28.58H54.7199V29.98H52.7179V33.536C52.7179 33.9 52.8065 34.18 52.9839 34.376C53.1612 34.5627 53.4179 34.656 53.7539 34.656C54.1459 34.656 54.4725 34.5533 54.7339 34.348L55.2239 35.594ZM56.9435 28.524H58.6935V36H56.9435V28.524ZM57.8255 27.292C57.5081 27.292 57.2421 27.194 57.0275 26.998C56.8128 26.7927 56.7055 26.5407 56.7055 26.242C56.7055 25.9433 56.8128 25.696 57.0275 25.5C57.2421 25.2947 57.5081 25.192 57.8255 25.192C58.1428 25.192 58.4088 25.29 58.6235 25.486C58.8381 25.6727 58.9455 25.9107 58.9455 26.2C58.9455 26.508 58.8381 26.7693 58.6235 26.984C58.4181 27.1893 58.1521 27.292 57.8255 27.292ZM68.2703 28.524L65.0643 36H63.2583L60.0523 28.524H61.8723L64.1963 34.068L66.5903 28.524H68.2703ZM76.467 32.304C76.467 32.4253 76.4577 32.598 76.439 32.822H70.573C70.6757 33.3727 70.9417 33.8113 71.371 34.138C71.8097 34.4553 72.351 34.614 72.995 34.614C73.8163 34.614 74.493 34.3433 75.025 33.802L75.963 34.88C75.627 35.2813 75.2023 35.5847 74.689 35.79C74.1757 35.9953 73.597 36.098 72.953 36.098C72.1317 36.098 71.4083 35.9347 70.783 35.608C70.1577 35.2813 69.6723 34.8287 69.327 34.25C68.991 33.662 68.823 32.9993 68.823 32.262C68.823 31.534 68.9863 30.8807 69.313 30.302C69.649 29.714 70.111 29.2567 70.699 28.93C71.287 28.6033 71.9497 28.44 72.687 28.44C73.415 28.44 74.0637 28.6033 74.633 28.93C75.2117 29.2473 75.6597 29.7 75.977 30.288C76.3037 30.8667 76.467 31.5387 76.467 32.304ZM72.687 29.84C72.127 29.84 71.651 30.008 71.259 30.344C70.8763 30.6707 70.643 31.1093 70.559 31.66H74.801C74.7263 31.1187 74.4977 30.68 74.115 30.344C73.7323 30.008 73.2563 29.84 72.687 29.84Z" fill="#141414"/>
<defs>
<linearGradient id="paint0_linear" x1="121" y1="5.25" x2="149.47" y2="97.9072" gradientUnits="userSpaceOnUse">
<stop stop-color="#F0EEF4"/>
<stop offset="0.461422" stop-color="#BBBCD7"/>
<stop offset="1" stop-color="#8189CC"/>
</linearGradient>
</defs>
</svg>
