<svg width="182" height="60" viewBox="0 0 182 60" fill="none" xmlns="http://www.w3.org/2000/svg">
<path d="M0 26C0 18.268 6.26801 12 14 12L172 12V30C172 41.0457 163.046 50 152 50H0V26Z" fill="white"/>
<rect x="122" width="60" height="60" rx="30" fill="url(#paint0_radial)"/>
<path d="M160.571 21.4287L152 30.0001M143.429 38.5716L152 30.0001M152 30.0001L160.571 38.5716M152 30.0001L143.429 21.4287" stroke="white" stroke-width="2.5" stroke-linecap="square"/>
<path d="M19.2894 26.2H23.5734C24.6188 26.2 25.5474 26.4053 26.3594 26.816C27.1714 27.2173 27.8014 27.7913 28.2494 28.538C28.6974 29.2753 28.9214 30.1293 28.9214 31.1C28.9214 32.0707 28.6974 32.9293 28.2494 33.676C27.8014 34.4133 27.1714 34.9873 26.3594 35.398C25.5474 35.7993 24.6188 36 23.5734 36H19.2894V26.2ZM23.4894 34.46C24.2081 34.46 24.8381 34.3247 25.3794 34.054C25.9301 33.774 26.3501 33.382 26.6394 32.878C26.9381 32.3647 27.0874 31.772 27.0874 31.1C27.0874 30.428 26.9381 29.84 26.6394 29.336C26.3501 28.8227 25.9301 28.4307 25.3794 28.16C24.8381 27.88 24.2081 27.74 23.4894 27.74H21.1094V34.46H23.4894ZM37.9958 32.304C37.9958 32.4253 37.9865 32.598 37.9678 32.822H32.1018C32.2045 33.3727 32.4705 33.8113 32.8998 34.138C33.3385 34.4553 33.8798 34.614 34.5238 34.614C35.3452 34.614 36.0218 34.3433 36.5538 33.802L37.4918 34.88C37.1558 35.2813 36.7312 35.5847 36.2178 35.79C35.7045 35.9953 35.1258 36.098 34.4818 36.098C33.6605 36.098 32.9372 35.9347 32.3118 35.608C31.6865 35.2813 31.2012 34.8287 30.8558 34.25C30.5198 33.662 30.3518 32.9993 30.3518 32.262C30.3518 31.534 30.5152 30.8807 30.8418 30.302C31.1778 29.714 31.6398 29.2567 32.2278 28.93C32.8158 28.6033 33.4785 28.44 34.2158 28.44C34.9438 28.44 35.5925 28.6033 36.1618 28.93C36.7405 29.2473 37.1885 29.7 37.5058 30.288C37.8325 30.8667 37.9958 31.5387 37.9958 32.304ZM34.2158 29.84C33.6558 29.84 33.1798 30.008 32.7878 30.344C32.4052 30.6707 32.1718 31.1093 32.0878 31.66H36.3298C36.2552 31.1187 36.0265 30.68 35.6438 30.344C35.2612 30.008 34.7852 29.84 34.2158 29.84ZM42.6077 28.44C43.7091 28.44 44.5491 28.706 45.1277 29.238C45.7157 29.7607 46.0097 30.554 46.0097 31.618V36H44.3577V35.09C44.1431 35.4167 43.8351 35.6687 43.4337 35.846C43.0417 36.014 42.5657 36.098 42.0057 36.098C41.4457 36.098 40.9557 36.0047 40.5357 35.818C40.1157 35.622 39.7891 35.356 39.5557 35.02C39.3317 34.6747 39.2197 34.2873 39.2197 33.858C39.2197 33.186 39.4671 32.6493 39.9617 32.248C40.4657 31.8373 41.2544 31.632 42.3277 31.632H44.2597V31.52C44.2597 30.9973 44.1011 30.596 43.7837 30.316C43.4757 30.036 43.0137 29.896 42.3977 29.896C41.9777 29.896 41.5624 29.9613 41.1517 30.092C40.7504 30.2227 40.4097 30.4047 40.1297 30.638L39.4437 29.364C39.8357 29.0653 40.3071 28.8367 40.8577 28.678C41.4084 28.5193 41.9917 28.44 42.6077 28.44ZM42.3697 34.824C42.8084 34.824 43.1957 34.726 43.5317 34.53C43.8771 34.3247 44.1197 34.0353 44.2597 33.662V32.794H42.4537C41.4457 32.794 40.9417 33.1253 40.9417 33.788C40.9417 34.1053 41.0677 34.3573 41.3197 34.544C41.5717 34.7307 41.9217 34.824 42.3697 34.824ZM52.034 36.098C51.2593 36.098 50.564 35.9347 49.948 35.608C49.332 35.2813 48.8513 34.8287 48.506 34.25C48.1607 33.662 47.988 32.9993 47.988 32.262C47.988 31.5247 48.1607 30.8667 48.506 30.288C48.8513 29.7093 49.3273 29.2567 49.934 28.93C50.55 28.6033 51.25 28.44 52.034 28.44C52.7713 28.44 53.4153 28.5893 53.966 28.888C54.526 29.1867 54.946 29.616 55.226 30.176L53.882 30.96C53.6673 30.6147 53.3967 30.358 53.07 30.19C52.7527 30.0127 52.4027 29.924 52.02 29.924C51.3667 29.924 50.8253 30.1387 50.396 30.568C49.9667 30.988 49.752 31.5527 49.752 32.262C49.752 32.9713 49.962 33.5407 50.382 33.97C50.8113 34.39 51.3573 34.6 52.02 34.6C52.4027 34.6 52.7527 34.516 53.07 34.348C53.3967 34.1707 53.6673 33.9093 53.882 33.564L55.226 34.348C54.9367 34.908 54.512 35.342 53.952 35.65C53.4013 35.9487 52.762 36.098 52.034 36.098ZM61.6085 35.594C61.4031 35.762 61.1511 35.888 60.8525 35.972C60.5631 36.056 60.2551 36.098 59.9285 36.098C59.1071 36.098 58.4725 35.8833 58.0245 35.454C57.5765 35.0247 57.3525 34.3993 57.3525 33.578V29.98H56.1205V28.58H57.3525V26.872H59.1025V28.58H61.1045V29.98H59.1025V33.536C59.1025 33.9 59.1911 34.18 59.3685 34.376C59.5458 34.5627 59.8025 34.656 60.1385 34.656C60.5305 34.656 60.8571 34.5533 61.1185 34.348L61.6085 35.594ZM63.3281 28.524H65.0781V36H63.3281V28.524ZM64.2101 27.292C63.8927 27.292 63.6267 27.194 63.4121 26.998C63.1974 26.7927 63.0901 26.5407 63.0901 26.242C63.0901 25.9433 63.1974 25.696 63.4121 25.5C63.6267 25.2947 63.8927 25.192 64.2101 25.192C64.5274 25.192 64.7934 25.29 65.0081 25.486C65.2227 25.6727 65.3301 25.9107 65.3301 26.2C65.3301 26.508 65.2227 26.7693 65.0081 26.984C64.8027 27.1893 64.5367 27.292 64.2101 27.292ZM74.655 28.524L71.449 36H69.643L66.437 28.524H68.257L70.581 34.068L72.975 28.524H74.655ZM78.6523 28.44C79.7536 28.44 80.5936 28.706 81.1723 29.238C81.7603 29.7607 82.0543 30.554 82.0543 31.618V36H80.4023V35.09C80.1876 35.4167 79.8796 35.6687 79.4783 35.846C79.0863 36.014 78.6103 36.098 78.0503 36.098C77.4903 36.098 77.0003 36.0047 76.5803 35.818C76.1603 35.622 75.8336 35.356 75.6003 35.02C75.3763 34.6747 75.2643 34.2873 75.2643 33.858C75.2643 33.186 75.5116 32.6493 76.0063 32.248C76.5103 31.8373 77.2989 31.632 78.3723 31.632H80.3043V31.52C80.3043 30.9973 80.1456 30.596 79.8283 30.316C79.5203 30.036 79.0583 29.896 78.4423 29.896C78.0223 29.896 77.6069 29.9613 77.1963 30.092C76.7949 30.2227 76.4543 30.4047 76.1743 30.638L75.4883 29.364C75.8803 29.0653 76.3516 28.8367 76.9023 28.678C77.4529 28.5193 78.0363 28.44 78.6523 28.44ZM78.4143 34.824C78.8529 34.824 79.2403 34.726 79.5763 34.53C79.9216 34.3247 80.1643 34.0353 80.3043 33.662V32.794H78.4983C77.4903 32.794 76.9863 33.1253 76.9863 33.788C76.9863 34.1053 77.1123 34.3573 77.3643 34.544C77.6163 34.7307 77.9663 34.824 78.4143 34.824ZM89.0742 35.594C88.8688 35.762 88.6168 35.888 88.3182 35.972C88.0288 36.056 87.7208 36.098 87.3942 36.098C86.5728 36.098 85.9382 35.8833 85.4902 35.454C85.0422 35.0247 84.8182 34.3993 84.8182 33.578V29.98H83.5862V28.58H84.8182V26.872H86.5682V28.58H88.5702V29.98H86.5682V33.536C86.5682 33.9 86.6568 34.18 86.8342 34.376C87.0115 34.5627 87.2682 34.656 87.6042 34.656C87.9962 34.656 88.3228 34.5533 88.5842 34.348L89.0742 35.594ZM97.5757 32.304C97.5757 32.4253 97.5663 32.598 97.5477 32.822H91.6817C91.7843 33.3727 92.0503 33.8113 92.4797 34.138C92.9183 34.4553 93.4597 34.614 94.1037 34.614C94.925 34.614 95.6017 34.3433 96.1337 33.802L97.0717 34.88C96.7357 35.2813 96.311 35.5847 95.7977 35.79C95.2843 35.9953 94.7057 36.098 94.0617 36.098C93.2403 36.098 92.517 35.9347 91.8917 35.608C91.2663 35.2813 90.781 34.8287 90.4357 34.25C90.0997 33.662 89.9317 32.9993 89.9317 32.262C89.9317 31.534 90.095 30.8807 90.4217 30.302C90.7577 29.714 91.2197 29.2567 91.8077 28.93C92.3957 28.6033 93.0583 28.44 93.7957 28.44C94.5237 28.44 95.1723 28.6033 95.7417 28.93C96.3203 29.2473 96.7683 29.7 97.0857 30.288C97.4123 30.8667 97.5757 31.5387 97.5757 32.304ZM93.7957 29.84C93.2357 29.84 92.7597 30.008 92.3677 30.344C91.985 30.6707 91.7517 31.1093 91.6677 31.66H95.9097C95.835 31.1187 95.6063 30.68 95.2237 30.344C94.841 30.008 94.365 29.84 93.7957 29.84ZM106.859 25.612V36H105.179V35.034C104.889 35.3887 104.53 35.6547 104.101 35.832C103.681 36.0093 103.214 36.098 102.701 36.098C101.982 36.098 101.333 35.9393 100.755 35.622C100.185 35.3047 99.7373 34.8567 99.4107 34.278C99.084 33.69 98.9207 33.018 98.9207 32.262C98.9207 31.506 99.084 30.8387 99.4107 30.26C99.7373 29.6813 100.185 29.2333 100.755 28.916C101.333 28.5987 101.982 28.44 102.701 28.44C103.195 28.44 103.648 28.524 104.059 28.692C104.469 28.86 104.819 29.112 105.109 29.448V25.612H106.859ZM102.911 34.6C103.331 34.6 103.709 34.5067 104.045 34.32C104.381 34.124 104.647 33.8487 104.843 33.494C105.039 33.1393 105.137 32.7287 105.137 32.262C105.137 31.7953 105.039 31.3847 104.843 31.03C104.647 30.6753 104.381 30.4047 104.045 30.218C103.709 30.022 103.331 29.924 102.911 29.924C102.491 29.924 102.113 30.022 101.777 30.218C101.441 30.4047 101.175 30.6753 100.979 31.03C100.783 31.3847 100.685 31.7953 100.685 32.262C100.685 32.7287 100.783 33.1393 100.979 33.494C101.175 33.8487 101.441 34.124 101.777 34.32C102.113 34.5067 102.491 34.6 102.911 34.6Z" fill="#141414"/>
<defs>
<radialGradient id="paint0_radial" cx="0" cy="0" r="1" gradientUnits="userSpaceOnUse" gradientTransform="translate(134 2.14286) rotate(63.4349) scale(77.6235 118.023)">
<stop offset="0.00298114" stop-color="#FF2D40"/>
<stop offset="0.369792" stop-color="#FD0017"/>
<stop offset="1" stop-color="#C12735"/>
</radialGradient>
</defs>
</svg>
