<svg width="143" height="14" viewBox="0 0 143 14" fill="none" xmlns="http://www.w3.org/2000/svg">
<path fill-rule="evenodd" clip-rule="evenodd" d="M70.7889 11.8754C73.4569 11.8754 75.6198 9.74747 75.6198 7.12256C75.6198 4.49766 73.4569 2.36975 70.7889 2.36975C68.1209 2.36975 65.958 4.49766 65.958 7.12256C65.958 9.74747 68.1209 11.8754 70.7889 11.8754Z" fill="white"/>
<path fill-rule="evenodd" clip-rule="evenodd" d="M70.7889 13.24C74.2355 13.24 77.0295 10.5 77.0295 7.12C77.0295 3.74002 74.2355 1 70.7889 1C67.3423 1 64.5483 3.74002 64.5483 7.12C64.5483 10.5 67.3423 13.24 70.7889 13.24Z" stroke="white" stroke-width="1.14156"/>
<path fill-rule="evenodd" clip-rule="evenodd" d="M8.31201 3.66141V10.9996C8.31201 11.6393 7.6184 12.0446 7.05212 11.7357L0.439509 8.1291C-0.141606 7.81215 -0.147622 6.98807 0.428751 6.66278L7.04137 2.93125C7.60777 2.61161 8.31201 3.01627 8.31201 3.66141Z" fill="white"/>
<path fill-rule="evenodd" clip-rule="evenodd" d="M133.151 3.46589C133.151 2.98092 133.545 2.58777 134.029 2.58777H141.457C141.942 2.58777 142.335 2.98092 142.335 3.46589V10.671C142.335 11.156 141.942 11.5492 141.457 11.5492H134.029C133.545 11.5492 133.151 11.156 133.151 10.671V3.46589Z" fill="white"/>
</svg>
