<svg width="20" height="20" viewBox="0 0 20 20" fill="none" xmlns="http://www.w3.org/2000/svg">
<path d="M4.74216 18.75V19.55H5.07384L5.30822 19.3153L4.74216 18.75ZM18.75 4.72392L19.3161 5.28924L19.8825 4.72207L19.3142 4.15676L18.75 4.72392ZM15.2578 1.25L15.822 0.682835L15.256 0.119742L14.6918 0.684683L15.2578 1.25ZM1.25 15.2761L0.683947 14.7108L0.45 14.945V15.2761H1.25ZM1.25 18.75H0.45V19.55H1.25V18.75ZM11.9786 4.93395L15.2278 8.1661L16.3562 7.03177L13.107 3.79962L11.9786 4.93395ZM9.375 19.6127H19.4064V18.0127H9.375V19.6127ZM5.30822 19.3153L19.3161 5.28924L18.1839 4.1586L4.17611 18.1847L5.30822 19.3153ZM19.3142 4.15676L15.822 0.682835L14.6936 1.81716L18.1858 5.29108L19.3142 4.15676ZM14.6918 0.684683L0.683947 14.7108L1.81605 15.8414L15.8239 1.81532L14.6918 0.684683ZM0.45 15.2761V18.75H2.05V15.2761H0.45ZM1.25 19.55H4.74216V17.95H1.25V19.55Z" fill="white"/>
</svg>
