<svg width="28" height="28" viewBox="0 0 28 28" fill="none" xmlns="http://www.w3.org/2000/svg">
<path d="M28 28H0V0H1.86667V26.1333H28V28Z" fill="white"/>
<path d="M8.5 10C9.88071 10 11 8.88071 11 7.5C11 6.11929 9.88071 5 8.5 5C7.11929 5 6 6.11929 6 7.5C6 8.88071 7.11929 10 8.5 10Z" fill="#1E25D5"/>
<path d="M8.5 7.5L21.5 2.5" stroke="#1E25D5" stroke-width="2"/>
<path d="M21.5 5C22.8807 5 24 3.88071 24 2.5C24 1.11929 22.8807 0 21.5 0C20.1193 0 19 1.11929 19 2.5C19 3.88071 20.1193 5 21.5 5Z" fill="#1E25D5"/>
<path d="M6 15H12V27H6V15Z" stroke="white" stroke-width="2"/>
<path d="M18 9H24V27H18V9Z" stroke="white" stroke-width="2"/>
</svg>
