<svg width="28" height="28" viewBox="0 0 28 28" fill="none" xmlns="http://www.w3.org/2000/svg">
<path d="M14 18.6663C16.5773 18.6663 18.6666 16.577 18.6666 13.9997C18.6666 11.4223 16.5773 9.33301 14 9.33301C11.4227 9.33301 9.33331 11.4223 9.33331 13.9997C9.33331 16.577 11.4227 18.6663 14 18.6663Z" stroke="#1E25D5" stroke-width="2" stroke-miterlimit="10"/>
<path d="M24.5 11.5768C24.3205 10.4998 23.782 9.42291 23.2436 8.52548L24.5 6.55112L21.6282 3.67932L19.6538 4.93573C18.7564 4.39727 17.6795 3.85881 16.6026 3.67932L16.0641 1.1665H11.9359L11.5769 3.49984C10.3205 3.67932 9.42307 4.21779 8.34614 4.75625L6.37178 3.49984L3.49999 6.37163L4.7564 8.34599C4.21794 9.42291 3.67948 10.3203 3.49999 11.5768L1.16666 11.9357V16.0639L3.49999 16.6024C3.67948 17.6793 4.21794 18.7562 4.7564 19.6537L3.49999 21.628L6.37178 24.4998L8.34614 23.2434C9.24358 23.7819 10.3205 24.3203 11.3974 24.4998L11.9359 26.8332H16.0641L16.6026 24.4998C17.6795 24.3203 18.7564 23.7819 19.6538 23.2434L21.6282 24.4998L24.5 21.628L23.2436 19.6537C23.782 18.7562 24.3205 17.6793 24.5 16.6024L26.8333 16.0639V11.9357L24.5 11.5768Z" stroke="white" stroke-width="2" stroke-miterlimit="10"/>
</svg>
