<svg width="20" height="20" viewBox="0 0 20 20" fill="none" xmlns="http://www.w3.org/2000/svg">
<g clip-path="url(#clip0)">
<path d="M6.53581 19.1519C4.70734 16.6835 3.6712 13.4532 3.6712 10.0705C3.6712 6.59642 4.70733 3.33563 6.62723 0.867188L7.6329 1.62905C5.89585 3.88417 4.95113 6.87069 4.95113 10.0705C4.95113 13.2094 5.86537 16.1654 7.54147 18.3901L6.53581 19.1519Z" fill="white"/>
<path d="M13.484 19.1519L12.4784 18.3901C14.1545 16.135 15.0687 13.1789 15.0687 10.0705C15.0687 6.90116 14.124 3.88417 12.387 1.62905L13.3926 0.867188C15.282 3.33563 16.3487 6.59642 16.3487 10.0705C16.3487 13.4837 15.343 16.6835 13.484 19.1519Z" fill="white"/>
<path d="M10.6804 0.806641H9.40049V19.2133H10.6804V0.806641Z" fill="white"/>
<path d="M18.6647 6.07861H1.41611V7.35855H18.6647V6.07861Z" fill="white"/>
<path d="M18.6647 12.6611H1.41609V13.9411H18.6647V12.6611Z" fill="white"/>
<path d="M10.01 19.8531C4.58549 19.8531 0.166679 15.4343 0.166679 10.0098C0.166679 4.58532 4.58549 0.166504 10.01 0.166504C15.4344 0.166504 19.8533 4.58532 19.8533 10.0098C19.8533 15.4343 15.4344 19.8531 10.01 19.8531ZM10.01 1.44642C5.28641 1.44642 1.44661 5.28623 1.44661 10.0098C1.44661 14.7334 5.28641 18.5731 10.01 18.5731C14.7335 18.5731 18.5733 14.7334 18.5733 10.0098C18.6038 5.28623 14.7335 1.44642 10.01 1.44642Z" fill="white"/>
</g>
<defs>
<clipPath id="clip0">
<rect width="20" height="20" fill="white"/>
</clipPath>
</defs>
</svg>
