<svg width="28" height="28" viewBox="0 0 28 28" fill="none" xmlns="http://www.w3.org/2000/svg">
<path d="M28 26.6665H0V10.9614H28V26.6665ZM1.88462 24.7819H26.1154V12.8012H1.88462V24.7819Z" fill="white"/>
<path d="M26.0256 9.07709H24.141V7.86555H3.85897V9.07709H2.01923V5.98096H26.0256V9.07709Z" fill="white"/>
<path d="M24.4551 4.14102H22.6154V2.88462H5.42947V4.14102H3.54486V1H24.4551V4.14102Z" fill="white"/>
<path d="M27.0576 16.8397C24.3205 16.8397 22.1218 14.641 22.1218 11.9038H24.0064C24.0064 13.6089 25.3974 14.9551 27.0576 14.9551V16.8397Z" fill="white"/>
<path d="M0.942322 16.8397V14.9551C2.64745 14.9551 3.99361 13.5641 3.99361 11.9038H5.87822C5.87822 14.5961 3.6795 16.8397 0.942322 16.8397Z" fill="white"/>
<path d="M5.87822 25.7245H3.99361C3.99361 24.0193 2.60258 22.6732 0.942322 22.6732V20.7886C3.6795 20.7886 5.87822 23.0322 5.87822 25.7245Z" fill="white"/>
<path d="M24.0064 25.7245H22.1218C22.1218 22.9873 24.3205 20.7886 27.0576 20.7886V22.6732C25.3974 22.6732 24.0064 24.0642 24.0064 25.7245Z" fill="white"/>
<path d="M14 23.3912C11.4872 23.3912 9.4231 21.3271 9.4231 18.8142C9.4231 16.3014 11.4872 14.2373 14 14.2373C16.5128 14.2373 18.5769 16.3014 18.5769 18.8142C18.5769 21.3271 16.5128 23.3912 14 23.3912ZM14 16.1219C12.5193 16.1219 11.3077 17.3335 11.3077 18.8142C11.3077 20.295 12.5193 21.5065 14 21.5065C15.4808 21.5065 16.6923 20.295 16.6923 18.8142C16.6923 17.3335 15.4808 16.1219 14 16.1219Z" fill="#1E25D5"/>
</svg>
